<?xml version="1.0" standalone="no"?>
<!DOCTYPE svg PUBLIC "-//W3C//DTD SVG 1.1//EN" "http://www.w3.org/Graphics/SVG/1.1/DTD/svg11.dtd" >
<svg xmlns="http://www.w3.org/2000/svg">
<metadata>
Created by FontPrep 20130207 at Mon Oct  7 17:35:05 2013
 By Rodrigo Gomes Dias
2006 Dziedzic Lukasz published by FSI Fonts und Software GmbH
</metadata>
<defs>
<font id="f811d8eabc6f39da14435c09b1df2c41" >
  <font-face 
    font-family="ClanOT-Book"
    font-weight="400"
    font-stretch="normal"
    units-per-em="2048"
    panose-1="2 0 5 3 3 0 0 2 0 4"
    ascent="1612"
    descent="-436"
    x-height="1208"
    cap-height="1536"
    bbox="-256 -471 2167 1976"
    underline-thickness="79"
    underline-position="-89"
    unicode-range="U+000D-FB02"
  />
<missing-glyph horiz-adv-x="1261" 
d="M285 90h692v1356h-692v-1356zM195 0v1536h872v-1536h-872z" />
    <glyph glyph-name="fi" unicode="fi" horiz-adv-x="1413" 
d="M1192 1546q0 -86 -96 -86t-97 86q1 86 97 86t96 -86zM399 1110v-1110h-123v1110h-196v98h196v60q0 170 94 265t292 95q90 0 153 -18l-4 -90q-66 16 -127 16q-285 0 -285 -270v-58h760v-1208h-127v1110h-633z" />
    <glyph glyph-name="fl" unicode="fl" horiz-adv-x="1351" 
d="M1110 0h-123v1530q-152 16 -227 16q-193 0 -277 -70t-84 -206v-62h287v-98h-287v-1110h-125v1110h-194v98h194v64q0 367 486 366q84 0 201 -11t149 -13v-1614z" />
    <glyph glyph-name=".notdef" horiz-adv-x="1261" 
d="M285 90h692v1356h-692v-1356zM195 0v1536h872v-1536h-872z" />
    <glyph glyph-name=".null" horiz-adv-x="0" 
 />
    <glyph glyph-name=".null" horiz-adv-x="0" 
 />
    <glyph glyph-name="nonmarkingreturn" horiz-adv-x="681" 
 />
    <glyph glyph-name="CR" unicode="&#xd;" horiz-adv-x="655" 
 />
    <glyph glyph-name="space" unicode=" " horiz-adv-x="655" 
 />
    <glyph glyph-name="exclam" unicode="!" horiz-adv-x="620" 
d="M406 69q0 -89 -94 -89t-95 89q1 89 95 89t94 -89zM352 391h-90l-22 1145h135z" />
    <glyph glyph-name="quotedbl" unicode="&#x22;" horiz-adv-x="739" 
d="M135 1581h137l-32 -455h-84zM475 1581h137l-32 -455h-84z" />
    <glyph glyph-name="numbersign" unicode="#" horiz-adv-x="1327" 
d="M559 967l-61 -377h268l57 377h-264zM133 590h264l62 377h-324v104h338l66 465h98l-64 -465h267l65 465h96l-65 -465h258v-104h-272l-60 -377h330v-105h-342l-70 -485h-96l68 485h-269l-67 -485h-101l68 485h-250v105z" />
    <glyph glyph-name="dollar" unicode="$" horiz-adv-x="1239" 
d="M252 1173q0 -117 103 -181q72 -45 235 -103l43 547q-189 -2 -285 -74t-96 -189zM1006 391q-2 125 -92 196t-257 130l-51 -627q400 2 400 301zM133 1165q0 187 133 289t377 107l10 135l84 -6l-10 -131q188 -14 307 -76l-12 -121q-147 57 -305 70l-47 -570q100 -36 165 -66
q184 -86 241 -211q36 -77 36 -177q0 -224 -126 -328t-390 -109l-12 -145l-78 6l10 141q-231 16 -383 109l17 131q178 -106 376 -121l52 653q-106 37 -166 65q-191 88 -244 195q-35 69 -35 160z" />
    <glyph glyph-name="percent" unicode="%" horiz-adv-x="1423" 
d="M1217 342q0 154 -43 212q-44 58 -144 58t-143 -58t-43 -212t44 -211t142 -57t142 57t45 211zM1026 702q145 0 213 -82t68 -274q0 -190 -68 -275t-211 -85t-211 84q-67 84 -67 273t65 274q66 85 211 85zM1044 1526l80 -56l-776 -1456l-80 56zM582 1210q0 154 -43 212
t-143 58t-144 -58q-45 -58 -45 -212t45 -212t144 -58t143 58q43 58 43 212zM674 1212q0 -192 -69 -276t-212 -84t-210 84t-67 273t65 274q65 84 211 84t214 -82q68 -81 68 -273z" />
    <glyph glyph-name="ampersand" unicode="&#x26;" horiz-adv-x="1390" 
d="M621 1458q-96 0 -160 -62t-64 -170t115 -292q111 82 158 119t99 107t52 140q0 72 -52 115t-148 43zM537 96q201 0 368 203q-256 238 -424 471q-236 -195 -235 -395q0 -129 81 -204t210 -75zM518 -25q-203 0 -300 111t-97 274q0 164 80 280t217 224q-137 215 -137 365
q0 151 86 241t249 90q162 0 244 -70q82 -71 82 -190t-105 -235q-64 -67 -159 -140t-107 -81q164 -227 406 -447q115 178 147 371l107 2q-23 -223 -168 -451q158 -135 303 -227l-45 -112q-162 98 -328 243q-205 -248 -475 -248z" />
    <glyph glyph-name="quotesingle" unicode="'" horiz-adv-x="399" 
d="M131 1581h137l-32 -455h-84z" />
    <glyph glyph-name="parenleft" unicode="(" horiz-adv-x="649" 
d="M330 693q0 -517 311 -949l-111 -8q-150 178 -234 425q-85 247 -85 527q0 544 319 952l113 -8q-313 -422 -313 -939z" />
    <glyph glyph-name="parenright" unicode=")" horiz-adv-x="649" 
d="M436 688q0 -280 -84 -528t-233 -424l-111 8q311 428 311 945t-313 943l113 8q317 -406 317 -952z" />
    <glyph glyph-name="asterisk" unicode="*" horiz-adv-x="714" 
d="M324 1630h71l6 -239l228 63l24 -74l-229 -71l147 -201l-57 -47l-154 201l-159 -201l-58 45l150 203l-232 71l27 74l229 -63z" />
    <glyph glyph-name="plus" unicode="+" horiz-adv-x="1216" 
d="M1057 639h-398v-389h-112v389h-385v119h385v397h112v-397h398v-119z" />
    <glyph glyph-name="comma" unicode="," horiz-adv-x="495" 
d="M152 68q0 100 95 100t95 -102q0 -45 -42 -159t-85 -194l-47 13l53 254q-29 8 -49 32t-20 56z" />
    <glyph glyph-name="hyphen" unicode="-" horiz-adv-x="847" 
d="M164 745h518v-98h-518v98z" />
    <glyph glyph-name="period" unicode="." horiz-adv-x="495" 
d="M344 75q0 -95 -96 -95t-96 95t96 95t96 -95z" />
    <glyph glyph-name="slash" unicode="/" horiz-adv-x="880" 
d="M750 1636h108l-708 -1900h-107z" />
    <glyph glyph-name="zero" unicode="0" horiz-adv-x="1339" 
d="M902 154q175 113 175 614q0 500 -175 611q-85 55 -231 55q-147 0 -233 -56q-178 -115 -178 -608q0 -387 95 -529t317 -143q145 0 230 56zM671 1556q287 0 411 -177t124 -608t-126 -612t-412 -181t-410 180q-125 180 -125 612t125 609t413 177z" />
    <glyph glyph-name="one" unicode="1" horiz-adv-x="1339" 
d="M389 0v106h299v1088l4 166l-4 2l-352 -240l-17 119l426 301h78v-1436h289v-106h-723z" />
    <glyph glyph-name="two" unicode="2" horiz-adv-x="1339" 
d="M1151 1145q0 -273 -311 -593q-174 -178 -467 -421v-6h794l-4 -125h-975v94q364 333 479 448q115 114 158 172t98 138q97 144 97 278t-93 217t-298 83t-393 -160l-39 110q197 172 449 172t378 -107q127 -107 127 -300z" />
    <glyph glyph-name="three" unicode="3" horiz-adv-x="1339" 
d="M520 874q494 0 494 289q0 139 -98 204t-269 65q-229 0 -416 -156l-38 104q186 172 460 172q227 0 355 -96t127 -276q0 -272 -289 -351v-4q166 -33 250 -121t84 -247q0 -221 -136 -347t-402 -126q-267 0 -464 125l31 112q183 -121 409 -121t331 100t105 264t-123 236
q-124 72 -411 72v102z" />
    <glyph glyph-name="four" unicode="4" horiz-adv-x="1339" 
d="M893 477l6 785l6 165l-4 3l-88 -144l-422 -670l-90 -133l2 -6h590zM1012 358v-358h-121v358h-727l-12 88l696 1090h164v-1059h213l-6 -119h-207z" />
    <glyph glyph-name="five" unicode="5" horiz-adv-x="1339" 
d="M1157 520q0 -537 -518 -536q-254 0 -434 125l28 116q188 -125 396 -125q401 0 401 410q0 176 -93 257t-303 81t-370 -92l-55 51l61 729h815l7 -123h-721l-45 -520q162 70 350 70q481 -1 481 -443z" />
    <glyph glyph-name="six" unicode="6" horiz-adv-x="1339" 
d="M1051 524q0 174 -88 255t-281 81q-106 0 -220 -49t-181 -129q4 -314 96 -448t297 -134q377 0 377 424zM1180 522q0 -539 -506 -538q-266 0 -395 167t-129 564q0 838 620 837q178 0 330 -61l-15 -119q-145 57 -301 58q-246 0 -372 -152t-140 -471l7 -4q176 164 424 164
q249 0 363 -109t114 -336z" />
    <glyph glyph-name="seven" unicode="7" horiz-adv-x="1339" 
d="M1204 1536v-115l-688 -1421h-151l708 1405h-915l6 131h1040z" />
    <glyph glyph-name="eight" unicode="8" horiz-adv-x="1339" 
d="M328 1167q0 -148 123 -217q140 -78 283 -107q5 -1 9 -3q143 59 209 136t66 185q0 281 -345 281t-345 -275zM1067 406q0 134 -91 204q-85 67 -300 133q-59 18 -86 27q-150 -61 -234 -146q-84 -86 -84 -230t94 -222t294 -78q406 0 407 312zM147 412q0 139 85 242t231 161v6
q-121 49 -188 131t-66 219q0 381 463 381t463 -381q0 -254 -265 -368v-4q152 -51 237 -139t85 -248q0 -430 -520 -430q-270 0 -398 105q-127 106 -127 325z" />
    <glyph glyph-name="nine" unicode="9" horiz-adv-x="1339" 
d="M1051 907q-8 528 -412 529q-182 0 -275 -87q-94 -87 -94 -253t96 -256t291 -90q259 -1 394 157zM1178 854q0 -461 -146 -666t-446 -204q-184 0 -340 67l20 115q147 -63 307 -64q242 0 358 160t126 524l-4 2q-162 -150 -413 -150t-373 120q-122 119 -122 336t124 338
q124 120 377 120q252 0 392 -176t140 -522z" />
    <glyph glyph-name="colon" unicode=":" horiz-adv-x="495" 
d="M344 75q0 -95 -96 -95t-96 95t96 95t96 -95zM344 1058q0 -95 -96 -95t-96 95t96 95t96 -95z" />
    <glyph glyph-name="semicolon" unicode=";" horiz-adv-x="505" 
d="M154 68q0 100 95 100t95 -102q0 -45 -42 -159t-85 -194l-47 13l53 254q-29 8 -49 32t-20 56zM354 1058q0 -95 -96 -95t-96 95t96 95t96 -95z" />
    <glyph glyph-name="less" unicode="&#x3c;" horiz-adv-x="1216" 
d="M1028 1038l-528 -268l-148 -70v-6l150 -69l526 -260v-129l-838 426v65l838 444v-133z" />
    <glyph glyph-name="equal" unicode="=" horiz-adv-x="1216" 
d="M1059 467h-899v106h899v-106zM1059 815h-899v107h899v-107z" />
    <glyph glyph-name="greater" unicode="&#x3e;" horiz-adv-x="1216" 
d="M190 236v129l525 258l151 69v6l-149 70l-527 270v133l838 -444v-65z" />
    <glyph glyph-name="question" unicode="?" horiz-adv-x="1056" 
d="M604 69q0 -89 -94 -89t-94 89t94 89t94 -89zM948 1210q0 -170 -96 -292t-289 -230l-6 -297h-100l-8 348q195 123 283 223t89 232q0 250 -297 250q-211 0 -389 -158l-49 100q176 176 451 177q205 1 308 -91t103 -262z" />
    <glyph glyph-name="at" unicode="@" horiz-adv-x="1732" 
d="M904 1042q-118 0 -209 -137t-91 -317q0 -113 46 -169q46 -57 128 -57t148 72t82 184l61 340q-47 84 -165 84zM911 1143q127 0 185 -94h6l26 79l76 -8l-92 -524q-6 -39 -6 -74q0 -170 154 -170q122 0 196 122t74 353q0 305 -163 497t-456 192q-334 0 -520 -238t-186 -592
t179 -582q178 -228 542 -229q364 0 567 203l37 -76q-244 -211 -622 -211t-584 246t-205 638q0 392 199 652q97 127 251 201t344 74q322 0 511 -214t190 -561q0 -283 -102 -426t-278 -143q-175 0 -206 174l-6 2q-98 -176 -272 -176q-119 0 -188 83t-68 247q0 221 122 388
q123 167 295 167z" />
    <glyph glyph-name="A" unicode="A" horiz-adv-x="1429" 
d="M713 1436l-54 -158l-272 -752h651l-268 752l-51 158h-6zM1227 0l-146 406h-739l-145 -406h-146l584 1536h160l583 -1536h-151z" />
    <glyph glyph-name="B" unicode="B" horiz-adv-x="1400" 
d="M1059 1137q0 147 -73 213t-230 65h-398v-559h414q287 0 287 281zM1120 440q0 305 -336 305h-428v-626h437q163 1 245 75t82 246zM1253 430q1 -214 -109 -322t-353 -108h-564v1536h533q428 0 428 -377q0 -143 -62 -229t-163 -115v-4q290 -59 290 -381z" />
    <glyph glyph-name="C" unicode="C" horiz-adv-x="1251" 
d="M797 1432q-271 0 -393 -146t-122 -513q0 -369 124 -521q123 -152 397 -152q182 0 332 80l22 -117q-172 -92 -371 -92q-336 0 -490 195t-153 608q0 414 156 600t492 187q206 0 358 -74l-19 -125q-150 70 -333 70z" />
    <glyph glyph-name="D" unicode="D" horiz-adv-x="1515" 
d="M1233 768q0 362 -117 500t-391 137h-363v-1276h365q266 0 386 139q120 138 120 500zM729 1536q341 0 493 -177t152 -588t-154 -591t-489 -180h-504v1536h502z" />
    <glyph glyph-name="E" unicode="E" horiz-adv-x="1282" 
d="M360 127h816l-7 -127h-942v1536h906l6 -127h-779v-547h674v-114h-674v-621z" />
    <glyph glyph-name="F" unicode="F" horiz-adv-x="1218" 
d="M362 1405v-555h652v-123h-652v-727h-135v1536h906l4 -131h-775z" />
    <glyph glyph-name="G" unicode="G" horiz-adv-x="1396" 
d="M1251 807v-746q-184 -90 -438 -90q-350 1 -510 187t-160 607t162 608t512 188q225 0 397 -76l-18 -125q-176 76 -373 76q-285 0 -413 -148t-127 -518q-1 -368 121 -518t407 -150q182 0 319 58v647h121z" />
    <glyph glyph-name="H" unicode="H" horiz-adv-x="1554" 
d="M1327 0h-135v739h-830v-739h-135v1536h135v-670h830v670h135v-1536z" />
    <glyph glyph-name="I" unicode="I" horiz-adv-x="647" 
d="M256 0v1536h135v-1536h-135z" />
    <glyph glyph-name="J" unicode="J" horiz-adv-x="1124" 
d="M897 1536v-1047q0 -252 -130 -385t-372 -133q-193 0 -313 95l14 124q115 -92 291 -92q177 0 275 100t98 294v1044h137z" />
    <glyph glyph-name="K" unicode="K" horiz-adv-x="1421" 
d="M362 743v-743h-135v1536h135v-672h259l528 672h168l-574 -725l609 -811h-176l-558 743h-256z" />
    <glyph glyph-name="L" unicode="L" horiz-adv-x="1179" 
d="M362 131h762l-6 -131h-891v1536h135v-1405z" />
    <glyph glyph-name="M" unicode="M" horiz-adv-x="1865" 
d="M227 1536h160l485 -1194l60 -154h6l57 154l486 1194h157v-1536h-120v1149l4 166l-6 2l-60 -156l-473 -1161h-102l-473 1155l-60 156l-4 -2l2 -166v-1143h-119v1536z" />
    <glyph glyph-name="N" unicode="N" horiz-adv-x="1564" 
d="M1337 0h-100l-795 1188l-90 139l-4 -2l2 -166v-1159h-123v1536h133l859 -1298l4 2l-4 163l-2 1133h120v-1536z" />
    <glyph glyph-name="O" unicode="O" horiz-adv-x="1509" 
d="M1229 768q0 258 -49 402q-48 144 -148 202t-276 60q-260 0 -366 -142t-107 -522q0 -258 49 -403t149 -203q99 -58 275 -60q176 0 275 60t149 204t49 402zM1368 767q0 -429 -139 -612t-472 -183t-473 184t-141 612q1 428 141 610t473 182t472 -182t139 -611z" />
    <glyph glyph-name="P" unicode="P" horiz-adv-x="1323" 
d="M1079 1075q0 184 -87 262t-275 78h-355v-678h355q186 0 274 77t88 261zM717 1536q262 0 381 -108t119 -347q0 -237 -119 -349t-381 -111h-355v-621h-135v1536h490z" />
    <glyph glyph-name="Q" unicode="Q" horiz-adv-x="1509" 
d="M1229 768q0 258 -49 402q-48 144 -148 202t-276 60q-260 0 -366 -142t-107 -522q0 -258 49 -403t149 -203q99 -58 275 -60q176 0 275 60t149 204t49 402zM143 774q1 422 141 604t473 182t472 -182t139 -592t-114 -593q-114 -184 -380 -211l-2 -5l361 -249l-191 -43
l-325 286q-309 9 -441 195t-133 608z" />
    <glyph glyph-name="R" unicode="R" horiz-adv-x="1335" 
d="M713 801q167 -1 245 73t78 237t-74 234q-75 71 -237 70h-363v-614h351zM1176 1120q0 -369 -328 -405l428 -715h-164l-393 690h-357v-690h-135v1536h498q231 0 341 -102t110 -314z" />
    <glyph glyph-name="S" unicode="S" horiz-adv-x="1153" 
d="M1055 424q0 -213 -129 -333t-372 -120t-435 119l24 127q182 -119 412 -119q180 0 274 83t95 235q0 96 -58 163t-147 99q-250 92 -379 150q-88 40 -146 123t-59 202q0 182 120 295t348 113t403 -82l-25 -121q-183 78 -363 78t-267 -78t-87 -197q0 -151 158 -225
q70 -33 154 -62q84 -30 167 -62q84 -32 154 -77t114 -123t44 -188z" />
    <glyph glyph-name="T" unicode="T" horiz-adv-x="1177" 
d="M655 1405v-1405h-135v1405h-481l4 131h1094l2 -131h-484z" />
    <glyph glyph-name="U" unicode="U" horiz-adv-x="1517" 
d="M1325 1536v-981q0 -584 -566 -584t-566 584v981h135v-981q0 -233 106 -343t324 -110t325 111q106 111 107 342v981h135z" />
    <glyph glyph-name="V" unicode="V" horiz-adv-x="1398" 
d="M1196 1536h141l-559 -1536h-157l-560 1536h150l438 -1249l51 -158h7l51 156z" />
    <glyph glyph-name="W" unicode="W" horiz-adv-x="2039" 
d="M944 1536h156l354 -1401h6l33 162l287 1239h135l-375 -1536h-172l-309 1241l-35 164h-6l-37 -164l-311 -1241h-168l-377 1536h139l287 -1241l35 -162h6l37 162z" />
    <glyph glyph-name="X" unicode="X" horiz-adv-x="1411" 
d="M1278 1536l-475 -737l512 -799h-160l-453 719l-442 -719h-162l502 797l-483 739h166l419 -662l416 662h160z" />
    <glyph glyph-name="Y" unicode="Y" horiz-adv-x="1343" 
d="M743 0h-137v539l-545 997h158l381 -719l74 -147h6l72 147l378 719h152l-539 -997v-539z" />
    <glyph glyph-name="Z" unicode="Z" horiz-adv-x="1261" 
d="M113 0v92l770 1178l92 133l-2 4h-834l6 129h994v-106l-764 -1164l-92 -131l2 -6h856l-6 -129h-1022z" />
    <glyph glyph-name="bracketleft" unicode="[" horiz-adv-x="638" 
d="M211 -258v1896h422v-100h-307v-1698h307v-98h-422z" />
    <glyph glyph-name="backslash" unicode="\" horiz-adv-x="794" 
d="M43 1636h102l627 -1900h-102z" />
    <glyph glyph-name="bracketright" unicode="]" horiz-adv-x="641" 
d="M428 1638v-1896h-422v96h309v1700h-309v100h422z" />
    <glyph glyph-name="asciicircum" unicode="^" horiz-adv-x="1339" 
d="M1077 948l-407 594l-406 -594h-114l475 701h92l471 -701h-111z" />
    <glyph glyph-name="underscore" unicode="_" horiz-adv-x="892" 
d="M68 -100h766v-90h-766v90z" />
    <glyph glyph-name="grave" unicode="`" 
d="M551 1362h-100l-211 291h161z" />
    <glyph glyph-name="a" unicode="a" horiz-adv-x="1163" 
d="M868 328v241q-28 21 -106 39t-176 19q-336 0 -336 -265q0 -274 285 -274q129 0 231 75t102 165zM502 -18q-174 0 -273 92q-98 92 -98 276q0 371 436 371q160 0 301 -53v149q0 168 -72 236q-74 67 -252 67t-327 -76l-14 109q172 80 385 80t309 -100t96 -334v-799h-94
l-14 170l-6 2q-49 -86 -151 -138t-226 -52z" />
    <glyph glyph-name="b" unicode="b" horiz-adv-x="1286" 
d="M678 84q176 0 270 114t94 405q0 290 -91 401t-277 110q-111 0 -200 -45t-142 -125v-684q43 -76 133 -126t213 -50zM700 1231q232 -1 350 -145t119 -479q-1 -335 -121 -482t-356 -148q-119 0 -217 43t-156 123l-6 -2l-24 -141h-82v1632l125 8v-401l-2 -164l4 -2
q134 158 366 158z" />
    <glyph glyph-name="c" unicode="c" horiz-adv-x="1026" 
d="M639 1110q-211 0 -302 -116t-91 -388t95 -396q95 -122 277 -122t295 84l13 -109q-121 -90 -314 -90q-252 0 -374 154t-121 478q0 324 120 474t377 150q162 0 301 -68l-10 -114q-131 63 -266 63z" />
    <glyph glyph-name="d" unicode="d" horiz-adv-x="1277" 
d="M616 1110q-200 0 -286 -119t-86 -397t83 -394q83 -118 287 -118q137 0 221 52q82 52 119 124v686q-45 76 -135 121t-203 45zM1079 0h-94l-20 141l-7 2q-116 -168 -370 -168t-363 151t-109 472t113 476t355 155t370 -158l4 2l-4 164v391l125 10v-1638z" />
    <glyph glyph-name="e" unicode="e" horiz-adv-x="1173" 
d="M598 1118q-176 0 -261 -104t-95 -316h704q-6 420 -348 420zM655 -25q-287 0 -413 159t-125 511q0 287 122 435t348 148t350 -136q124 -137 124 -420q0 -29 -4 -62h-813q4 -286 103 -402t321 -116q174 0 333 86l17 -108q-166 -95 -363 -95z" />
    <glyph glyph-name="f" unicode="f" horiz-adv-x="825" 
d="M399 0h-125v1110h-194v98h194v60q0 170 94 265t291 95q100 0 170 -24l-10 -88q-74 18 -143 18q-276 0 -277 -268v-58h340v-98h-340v-1110z" />
    <glyph glyph-name="g" unicode="g" horiz-adv-x="1157" 
d="M574 1124q-154 0 -220 -61t-66 -197t74 -188q74 -53 222 -53t214 60q64 60 64 192t-67 190q-68 57 -221 57zM248 18q0 -229 336 -229q211 0 294 58q83 57 83 155q1 98 -59 140t-228 57l-295 30q-131 -84 -131 -211zM1077 33q-1 -348 -473 -348q-246 0 -356 84
q-111 84 -111 232t133 251q-111 47 -110 162q0 55 41 102t110 70l2 4q-145 80 -145 270t97 280t297 89q200 0 308 -84l195 88l29 -64l-156 -104q43 -80 43 -188q0 -178 -93 -265q-94 -86 -313 -86q-98 0 -174 23q-125 -29 -125 -111q0 -76 119 -94l297 -31q215 -23 300 -89
t85 -191z" />
    <glyph glyph-name="h" unicode="h" horiz-adv-x="1273" 
d="M1102 0h-125v817q0 293 -315 293q-109 0 -199 -47t-131 -119v-944h-125v1628l125 10v-397l-2 -164l4 -2q131 156 345 156q214 -1 318 -107t105 -307v-817z" />
    <glyph glyph-name="i" unicode="i" horiz-adv-x="630" 
d="M412 1542q0 -86 -96 -86t-97 86q1 86 97 86t96 -86zM377 0h-125v1202l125 10v-1212z" />
    <glyph glyph-name="j" unicode="j" horiz-adv-x="624" 
d="M406 1546q0 -86 -97 -86q-49 0 -73 20t-23 66q1 86 97 86t96 -86zM373 -35q0 -281 -256 -280q-63 0 -127 22l10 98q47 -18 90 -18q158 0 158 180v1235l125 10v-1247z" />
    <glyph glyph-name="k" unicode="k" horiz-adv-x="1173" 
d="M332 709h192l422 501h160l-469 -553l489 -657h-157l-445 598h-192v-598h-125v1630l125 8v-929z" />
    <glyph glyph-name="l" unicode="l" horiz-adv-x="606" 
d="M365 0h-123v1630l123 8v-1638z" />
    <glyph glyph-name="m" unicode="m" horiz-adv-x="1871" 
d="M1700 0h-123v821q0 143 -77 215t-204 72q-126 0 -206 -69t-80 -191v-848h-123v848q0 133 -77 196q-78 64 -182 64t-186 -44t-125 -118v-946h-122v1206l88 8l24 -147h6q51 72 137 115t183 43q260 0 334 -201h6q41 98 130 150t210 53q178 1 282 -101t105 -303v-823z" />
    <glyph glyph-name="n" unicode="n" horiz-adv-x="1261" 
d="M1090 0h-123v815q0 295 -320 295q-94 0 -187 -44t-143 -120v-946h-122v1206l88 8l22 -145h6q61 76 159 118t208 42q196 1 304 -103t108 -309v-817z" />
    <glyph glyph-name="o" unicode="o" horiz-adv-x="1247" 
d="M246 601q0 -283 88 -401t292 -118t290 119t85 401q0 282 -86 398q-85 118 -289 118t-292 -118t-88 -399zM1130 601q0 -337 -118 -482t-384 -145q-267 0 -389 146t-122 481t122 481t388 146q267 0 385 -144q118 -146 118 -483z" />
    <glyph glyph-name="p" unicode="p" horiz-adv-x="1273" 
d="M655 86q181 0 277 114t96 402t-89 398t-271 110q-231 0 -344 -168v-680q45 -76 129 -126t202 -50zM688 1229q238 1 354 -141q115 -142 115 -478t-123 -486q-122 -150 -356 -149q-234 0 -352 156l-4 -2l2 -166v-258h-129v1497l92 8l26 -139h6q131 158 369 158z" />
    <glyph glyph-name="q" unicode="q" horiz-adv-x="1273" 
d="M616 1110q-198 0 -284 -114t-86 -392t88 -394q88 -114 280 -114q140 0 234 60t102 135v643q-33 74 -127 125t-207 51zM117 603q0 329 120 477q121 148 365 148t367 -169h6l20 147h80l-2 -1501l-125 -4v264l4 166l-4 2q-127 -151 -357 -151t-352 146t-122 475z" />
    <glyph glyph-name="r" unicode="r" horiz-adv-x="894" 
d="M317 0h-122v1202l100 8l4 -135l4 -166h4q53 145 157 231t236 85q66 0 115 -15l-10 -129q-47 16 -111 17q-158 0 -268 -133t-109 -349v-616z" />
    <glyph glyph-name="s" unicode="s" horiz-adv-x="1003" 
d="M901 340q0 -170 -100 -267t-317 -97t-357 110l20 113q137 -115 347 -115q147 0 219 67q71 67 71 166t-67 155q-68 56 -163 87t-190 66t-163 105t-68 181q1 150 105 234t288 84t326 -70l-12 -108q-152 67 -294 67t-218 -54t-76 -141t66 -139q67 -52 163 -80
q95 -28 191 -62t163 -108q66 -75 66 -194z" />
    <glyph glyph-name="t" unicode="t" horiz-adv-x="792" 
d="M711 1108h-318v-817q0 -203 197 -203q63 0 102 16l10 -98q-55 -25 -145 -24q-289 0 -289 305v821h-188v100h190l25 318l98 12v-330h318v-100z" />
    <glyph glyph-name="u" unicode="u" horiz-adv-x="1239" 
d="M1067 1208v-827q0 -195 -113 -300t-335 -105q-223 0 -335 106t-112 299v827h123v-823q0 -141 82 -216q81 -75 241 -75t243 74t83 217v823h123z" />
    <glyph glyph-name="v" unicode="v" horiz-adv-x="1290" 
d="M1063 1208h139l-483 -1208h-148l-485 1208h141l416 -1095h6l56 155z" />
    <glyph glyph-name="w" unicode="w" horiz-adv-x="1765" 
d="M819 1208h137l293 -1114h6l33 162l225 952h125l-305 -1208h-157l-244 915l-39 162h-6l-41 -162l-250 -915h-154l-315 1208h127l266 -1110h6l39 160z" />
    <glyph glyph-name="x" unicode="x" horiz-adv-x="1208" 
d="M950 0l-352 551l-348 -551h-148l414 614l-403 594h151l342 -528l338 528h146l-396 -590l410 -618h-154z" />
    <glyph glyph-name="y" unicode="y" horiz-adv-x="1290" 
d="M391 -215q76 0 128 39t95 137l9 27l-537 1220h150l450 -1097h6l49 157l324 940h137l-461 -1253q-59 -150 -138 -211t-185 -61t-185 38l17 101q65 -37 141 -37z" />
    <glyph glyph-name="z" unicode="z" horiz-adv-x="1114" 
d="M143 0v90l588 871l94 131l-2 4h-653l4 112h799v-92l-586 -870l-94 -129l2 -6h686l-4 -111h-834z" />
    <glyph glyph-name="braceleft" unicode="{" horiz-adv-x="739" 
d="M492 901q0 -160 -130 -203v-6q129 -49 130 -205q0 -90 -16 -233t-17 -230q0 -88 50 -132t167 -44h57v-102h-51q-182 0 -262 66t-80 194q0 92 20 245t20 232t-44 125q-45 46 -125 54v65q80 8 125 54t45 125t-21 231q-20 152 -20 243q0 131 80 197t262 65h51v-104h-57
q-119 0 -168 -43t-49 -131q1 -88 17 -230t16 -233z" />
    <glyph glyph-name="bar" unicode="|" horiz-adv-x="565" 
d="M233 -362v2033h99v-2033h-99z" />
    <glyph glyph-name="braceright" unicode="}" horiz-adv-x="739" 
d="M246 487q0 156 131 205v6q-131 43 -131 203q0 91 18 233t18 230t-50 131t-169 43h-57v104h51q182 0 262 -66t80 -196q0 -92 -20 -244q-21 -152 -21 -230q0 -79 45 -125t125 -54v-65q-80 -8 -125 -54t-45 -126q0 -78 20 -231t21 -245q0 -128 -80 -194t-262 -66h-51v102h57
q119 0 169 44t50 132t-18 230q-18 143 -18 233z" />
    <glyph glyph-name="asciitilde" unicode="~" horiz-adv-x="1339" 
d="M463 1569q78 0 213 -76q134 -76 200 -76t103 32t59 97h82q-43 -250 -246 -250q-78 0 -212 75t-197 75q-119 0 -166 -129h-82q41 252 246 252z" />
    <glyph glyph-name="uni00A0" unicode="&#xa0;" horiz-adv-x="655" 
 />
    <glyph glyph-name="exclamdown" unicode="&#xa1;" horiz-adv-x="620" 
d="M215 1286q0 88 94 88t94 -88t-94 -88t-94 88zM262 971h100l17 -1247h-135z" />
    <glyph glyph-name="cent" unicode="&#xa2;" horiz-adv-x="1034" 
d="M645 1110q-211 0 -302 -116t-91 -388t95 -396q95 -122 277 -122t296 84l12 -109q-104 -78 -277 -88l-10 -288h-104l12 288q-219 18 -325 173q-105 155 -105 463t111 458q112 150 352 160l16 270h103l-17 -274q128 -13 234 -64l-11 -114q-131 63 -266 63z" />
    <glyph glyph-name="sterling" unicode="&#xa3;" horiz-adv-x="1323" 
d="M762 1432q-202 0 -299 -86q-98 -86 -98 -230q0 -96 51 -289h563v-110h-539q27 -133 27 -238q0 -252 -160 -364l2 -4q360 58 922 4q0 -3 -4 -63t-6 -64q-303 30 -541 30t-543 -28l-6 119q100 41 154 139q53 98 53 224t-25 245h-133l-4 110h109q-53 197 -54 297
q0 193 124 312t401 118q217 0 389 -84l-21 -120q-160 82 -362 82z" />
    <glyph glyph-name="currency" unicode="&#xa4;" horiz-adv-x="1161" 
d="M319 738q0 -105 75 -178t184 -73q108 0 182 73t74 178q0 106 -75 180t-181 74t-183 -74q-76 -75 -76 -180zM229 735q0 117 68 211l-131 135l70 78l133 -139q96 70 211 70t206 -72l142 141l69 -76l-139 -141q68 -90 68 -204t-62 -203l131 -134l-69 -77l-135 135
q-92 -74 -212 -74t-214 72l-132 -133l-69 75l129 131q-64 88 -64 205z" />
    <glyph glyph-name="yen" unicode="&#xa5;" horiz-adv-x="1484" 
d="M391 670h248l-483 866h155l361 -709l71 -147h7l69 147l359 709h149l-471 -866h240v-88h-277v-117h277v-86h-277v-379h-143v379h-285v86h285v117h-285v88z" />
    <glyph glyph-name="brokenbar" unicode="&#xa6;" horiz-adv-x="565" 
d="M233 -352v917h99v-917h-99zM233 766v905h99v-905h-99z" />
    <glyph glyph-name="section" unicode="&#xa7;" horiz-adv-x="1140" 
d="M928 573q0 133 -153 239q-90 62 -304 169q-201 -63 -201 -227q0 -133 153 -239q90 -62 304 -169q201 65 201 227zM150 728q0 225 215 312l2 4q-187 118 -187 264t111 230t329 84t365 -102l-16 -103q-162 99 -334 99t-250 -54t-78 -140q0 -85 77 -147q78 -63 186 -113
t216 -108t186 -153q77 -95 77 -203q0 -231 -215 -311v-6q184 -113 184 -261t-110 -232q-110 -83 -328 -83t-365 102l14 103q154 -98 359 -98q147 0 225 53t78 139t-77 148q-78 62 -186 113t-216 109t-186 152q-76 94 -76 202z" />
    <glyph glyph-name="dieresis" unicode="&#xa8;" 
d="M561 1628q72 0 72 -79t-72 -79t-72 79t72 79zM256 1628q72 0 72 -79t-72 -79t-72 79t72 79z" />
    <glyph glyph-name="copyright" unicode="&#xa9;" horiz-adv-x="1892" 
d="M995 1182q-201 0 -315 -113t-115 -293q0 -180 118 -296t314 -115q145 0 287 84q6 -27 14 -95q-150 -115 -329 -114q-233 0 -381 150q-148 151 -148 379t142 380t383 151q184 0 303 -88l-13 -98q-111 68 -260 68zM215 779q0 -298 213 -514t518 -216t520 214t215 513
t-216 512t-521 213t-517 -212t-212 -510zM1751 777q0 -333 -237 -569q-238 -236 -570 -237t-568 235t-235 570q0 334 236 570q237 236 569 236t568 -236t237 -569z" />
    <glyph glyph-name="ordfeminine" unicode="&#xaa;" horiz-adv-x="831" 
d="M594 1049v157q-47 33 -168 33q-207 0 -207 -171t174 -171q80 0 141 48q60 49 60 104zM365 801q-250 0 -250 268q0 123 74 191q75 68 201 68t204 -40v98q0 106 -46 148t-157 43q-111 0 -215 -49l-12 96q120 53 264 53q144 1 208 -71t64 -238v-557h-84l-10 107l-6 2
q-84 -119 -235 -119z" />
    <glyph glyph-name="guillemotleft" unicode="&#xab;" horiz-adv-x="1249" 
d="M631 942l-432 -268l432 -266v-111l-570 371v14l570 369v-109zM1034 942l-432 -268l432 -266v-111l-569 371v14l569 369v-109z" />
    <glyph glyph-name="logicalnot" unicode="&#xac;" horiz-adv-x="1339" 
d="M985 641h-737v119h844v-443h-107v324z" />
    <glyph glyph-name="uni00AD" unicode="&#xad;" horiz-adv-x="847" 
d="M164 745h518v-98h-518v98z" />
    <glyph glyph-name="registered" unicode="&#xae;" horiz-adv-x="927" 
d="M580 1450q0 68 -86 68h-113v-136h123q76 0 76 68zM641 1452q0 -92 -86 -115l100 -174h-71l-90 170h-113v-170h-64v410h175q149 0 149 -121zM158 1361q0 -128 91 -218t217 -90t215 90t89 218t-89 217t-216 89t-217 -89t-90 -217zM113 1361q0 147 103 251q102 104 248 104
t250 -104t103 -250q0 -146 -103 -252q-102 -104 -248 -104t-250 104q-103 105 -103 251z" />
    <glyph glyph-name="macron" unicode="&#xaf;" 
d="M680 1569v-90h-539v90h539z" />
    <glyph glyph-name="degree" unicode="&#xb0;" horiz-adv-x="731" 
d="M364 1597q-76 0 -128 -52t-52 -127t52 -127t129 -52q76 0 129 52t53 127t-53 127t-130 52zM115 1418q0 103 72 178q73 75 177 75t179 -74q73 -74 73 -179t-74 -180t-176 -75q-103 0 -178 76q-73 76 -73 179z" />
    <glyph glyph-name="plusminus" unicode="&#xb1;" horiz-adv-x="1339" 
d="M1108 166h-883v104h883v-104zM1112 713h-389v-355h-115v355h-381v116h381v383h115v-383h389v-116z" />
    <glyph glyph-name="twosuperior" unicode="&#xb2;" horiz-adv-x="698" 
d="M345 1847q140 -1 209 -61t69 -170q-1 -110 -95 -220t-297 -270v-6h400l-2 -92h-537v72q24 23 90 82t90 83l74 72q130 130 156 213q10 33 10 64q0 63 -43 101t-141 38t-207 -80l-29 86q113 88 253 88z" />
    <glyph glyph-name="threesuperior" unicode="&#xb3;" horiz-adv-x="698" 
d="M311 1108q211 0 211 168q0 78 -59 110t-207 33v78q133 0 190 35t58 104q0 121 -172 121q-129 0 -226 -78l-26 80q102 88 242 88t210 -53q72 -53 72 -152q0 -139 -147 -180v-4q168 -34 168 -188q0 -250 -299 -250q-145 0 -254 65l26 84q100 -61 213 -61z" />
    <glyph glyph-name="acute" unicode="&#xb4;" 
d="M498 1653h164l-226 -291h-102z" />
    <glyph glyph-name="uni00B5" unicode="&#xb5;" horiz-adv-x="1261" 
d="M657 -23q-115 -1 -210 47t-142 148l-4 -2q10 -289 21 -465l-127 -12v1515h124l-2 -817q1 -141 95 -221t237 -80t230 69q86 69 86 193v856h125v-1206l-91 -10l-20 135l-6 2q-87 -152 -316 -152z" />
    <glyph glyph-name="paragraph" unicode="&#xb6;" horiz-adv-x="1316" 
d="M397 -301v1341q-131 4 -208 70t-77 180t76 180t215 66h799l-6 -113h-160v-1724h-112v1724h-416l2 -1724h-113z" />
    <glyph glyph-name="periodcentered" unicode="&#xb7;" horiz-adv-x="565" 
d="M282 799q96 0 97 -95q0 -96 -96 -96t-97 97q0 94 96 94z" />
    <glyph glyph-name="cedilla" unicode="&#xb8;" 
d="M281 -393l120 393h88l-81 -393h-127z" />
    <glyph glyph-name="onesuperior" unicode="&#xb9;" horiz-adv-x="540" 
d="M393 1841v-813h-108v508l6 162l-6 2l-174 -117l-11 90l228 168h65z" />
    <glyph glyph-name="ordmasculine" unicode="&#xba;" horiz-adv-x="899" 
d="M452 1575q-126 0 -178 -75t-53 -264q0 -189 52 -264q53 -75 179 -75t178 76t52 264t-52 263t-178 75zM791 1237q0 -238 -80 -338t-259 -100t-261 100q-81 100 -81 337t83 339q82 102 261 102t258 -101t79 -339z" />
    <glyph glyph-name="guillemotright" unicode="&#xbb;" horiz-adv-x="1249" 
d="M172 297v111l432 266l-432 268v109l569 -369v-14zM578 297v111l432 266l-432 268v109l569 -369v-14z" />
    <glyph glyph-name="onequarter" unicode="&#xbc;" horiz-adv-x="1779" 
d="M1354 1536h100l-1040 -1536h-101zM1370 266l2 281l6 166l-4 2l-209 -314l-94 -129l2 -6h297zM1468 180v-180h-100v180h-412l-8 60l389 567h131v-541h105l-4 -86h-101zM571 1540v-813h-108v508l6 162l-6 2l-174 -117l-10 90l227 168h65z" />
    <glyph glyph-name="onehalf" unicode="&#xbd;" horiz-adv-x="1779" 
d="M565 1540v-813h-108v508l6 162l-6 2l-174 -117l-11 90l228 168h65zM1339 1536h101l-1041 -1536h-100zM1599 586q0 -112 -95 -220q-95 -110 -296 -268v-6h400l-2 -92h-537v72q43 39 176 159t183 199l32 52q30 49 29 108q0 59 -43 97t-141 38t-207 -80l-29 86
q115 86 254 86q276 -1 276 -231z" />
    <glyph glyph-name="threequarters" unicode="&#xbe;" horiz-adv-x="1779" 
d="M698 969q0 -250 -299 -250q-145 0 -254 65l27 84q100 -61 212 -61q212 0 212 168q0 79 -59 111t-207 32v78q133 0 190 35t58 104q0 121 -172 121q-127 0 -226 -76l-26 78q102 88 242 88q282 0 282 -205q0 -139 -148 -180v-4q168 -34 168 -188zM1356 1536h100l-1040 -1536
h-101zM1374 266l2 281l6 166l-4 2l-209 -314l-94 -129l2 -6h297zM1473 180v-180h-101v180h-411l-9 60l389 567h132v-541h104l-4 -86h-100z" />
    <glyph glyph-name="questiondown" unicode="&#xbf;" horiz-adv-x="1003" 
d="M455 1287q0 89 94 89t94 -89t-94 -89t-94 89zM109 143q0 170 96 293t289 230l8 299h100l8 -351q-196 -123 -284 -223t-88 -231q0 -248 294 -248q215 0 392 156l49 -99q-174 -178 -451 -178q-205 0 -309 91t-104 261z" />
    <glyph glyph-name="Agrave" unicode="&#xc0;" horiz-adv-x="1429" 
d="M811 1642h-109l-237 234h170zM713 1436l-54 -158l-272 -752h651l-268 752l-51 158h-6zM1227 0l-146 406h-739l-145 -406h-146l584 1536h160l583 -1536h-151z" />
    <glyph glyph-name="Aacute" unicode="&#xc1;" horiz-adv-x="1429" 
d="M788 1874h185l-256 -236h-107zM713 1436l-54 -158l-272 -752h651l-268 752l-51 158h-6zM1227 0l-146 406h-739l-145 -406h-146l584 1536h160l583 -1536h-151z" />
    <glyph glyph-name="Acircumflex" unicode="&#xc2;" horiz-adv-x="1429" 
d="M647 1874h133l248 -236h-131l-182 170l-178 -170h-129zM713 1436l-54 -158l-272 -752h651l-268 752l-51 158h-6zM1227 0l-146 406h-739l-145 -406h-146l584 1536h160l583 -1536h-151z" />
    <glyph glyph-name="Atilde" unicode="&#xc3;" horiz-adv-x="1429" 
d="M586 1855q62 -1 144 -73q81 -72 116 -72q66 0 90 117l61 -2q-10 -89 -51 -145t-103 -56q-63 0 -143 73t-114 72q-61 1 -90 -114l-64 2q10 90 51 144t103 54zM713 1436l-54 -158l-272 -752h651l-268 752l-51 158h-6zM1227 0l-146 406h-739l-145 -406h-146l584 1536h160
l583 -1536h-151z" />
    <glyph glyph-name="Adieresis" unicode="&#xc4;" horiz-adv-x="1429" 
d="M979 1731q0 -76 -71 -76t-70 76q0 76 71 75q70 1 70 -75zM594 1731q0 -76 -71 -76t-70 76q0 76 71 75q70 1 70 -75zM713 1436l-54 -158l-272 -752h651l-268 752l-51 158h-6zM1227 0l-146 406h-739l-145 -406h-146l584 1536h160l583 -1536h-151z" />
    <glyph glyph-name="Aring" unicode="&#xc5;" horiz-adv-x="1429" 
d="M621 1647q0 -82 95 -82t95 82t-95 82t-95 -82zM713 1436l-54 -158l-272 -752h651l-268 752l-51 158h-6zM547 1649q0 67 44 107t123 40t124 -40t45 -105q0 -98 -82 -133l577 -1518h-151l-146 406h-739l-145 -406h-146l576 1516q-80 35 -80 133z" />
    <glyph glyph-name="AE" unicode="&#xc6;" horiz-adv-x="2150" 
d="M1057 1436l-76 -148l-416 -762h598l-86 744l-14 164zM1903 862v-114h-633l73 -621h699l-6 -127h-811l-47 406h-678l-221 -406h-164l870 1536h1032l4 -127h-831l65 -547h648z" />
    <glyph glyph-name="Ccedilla" unicode="&#xc7;" horiz-adv-x="1251" 
d="M797 1432q-271 0 -393 -146t-122 -513q0 -369 124 -521q123 -152 397 -152q182 0 332 80l22 -117q-152 -82 -336 -90l-76 -366h-127l113 366q-305 16 -446 210t-141 599q0 406 155 592q156 186 492 187q207 0 358 -74l-19 -125q-150 70 -333 70z" />
    <glyph glyph-name="Egrave" unicode="&#xc8;" horiz-adv-x="1282" 
d="M795 1642h-109l-237 234h169zM360 127h816l-7 -127h-942v1536h906l6 -127h-779v-547h674v-114h-674v-621z" />
    <glyph glyph-name="Eacute" unicode="&#xc9;" horiz-adv-x="1282" 
d="M772 1874h184l-256 -236h-106zM360 127h816l-7 -127h-942v1536h906l6 -127h-779v-547h674v-114h-674v-621z" />
    <glyph glyph-name="Ecircumflex" unicode="&#xca;" horiz-adv-x="1282" 
d="M633 1874h133l248 -236h-131l-183 170l-178 -170h-129zM360 127h816l-7 -127h-942v1536h906l6 -127h-779v-547h674v-114h-674v-621z" />
    <glyph glyph-name="Edieresis" unicode="&#xcb;" horiz-adv-x="1282" 
d="M963 1731q0 -76 -71 -76t-71 76t72 75q70 1 70 -75zM578 1731q0 -76 -71 -76t-71 76t72 75q70 1 70 -75zM360 127h816l-7 -127h-942v1536h906l6 -127h-779v-547h674v-114h-674v-621z" />
    <glyph glyph-name="Igrave" unicode="&#xcc;" horiz-adv-x="647" 
d="M420 1642h-109l-237 234h170zM256 0v1536h135v-1536h-135z" />
    <glyph glyph-name="Iacute" unicode="&#xcd;" horiz-adv-x="647" 
d="M397 1874h185l-256 -236h-107zM256 0v1536h135v-1536h-135z" />
    <glyph glyph-name="Icircumflex" unicode="&#xce;" horiz-adv-x="647" 
d="M256 1874h133l248 -236h-131l-182 170l-179 -170h-129zM256 0v1536h135v-1536h-135z" />
    <glyph glyph-name="Idieresis" unicode="&#xcf;" horiz-adv-x="647" 
d="M588 1731q0 -76 -71 -76t-71 76t72 75q70 1 70 -75zM203 1731q0 -76 -71 -76t-71 76t72 75q70 1 70 -75zM256 0v1536h135v-1536h-135z" />
    <glyph glyph-name="Eth" unicode="&#xd0;" horiz-adv-x="1527" 
d="M1245 768q0 362 -117 500t-391 137h-362v-553h239v-92h-239v-631h364q266 0 386 139q120 138 120 500zM741 1536q341 0 493 -177t152 -588t-154 -591t-489 -180h-503v760h-160v92h160v684h501z" />
    <glyph glyph-name="Ntilde" unicode="&#xd1;" horiz-adv-x="1564" 
d="M670 1855q62 -1 144 -73q81 -72 116 -72q66 0 90 117l61 -2q-10 -89 -51 -145t-103 -56q-63 0 -143 73t-114 72q-61 1 -90 -114l-64 2q10 90 51 144t103 54zM1337 0h-100l-795 1188l-90 139l-4 -2l2 -166v-1159h-123v1536h133l859 -1298l4 2l-4 163l-2 1133h120v-1536z
" />
    <glyph glyph-name="Ograve" unicode="&#xd2;" horiz-adv-x="1509" 
d="M891 1642h-109l-237 234h170zM1229 768q0 258 -49 402q-48 144 -148 202t-276 60q-260 0 -366 -142t-107 -522q0 -258 49 -403t149 -203q99 -58 275 -60q176 0 275 60t149 204t49 402zM1368 767q0 -429 -139 -612t-472 -183t-473 184t-141 612q1 428 141 610t473 182
t472 -182t139 -611z" />
    <glyph glyph-name="Oacute" unicode="&#xd3;" horiz-adv-x="1509" 
d="M829 1874h185l-256 -236h-107zM1229 768q0 258 -49 402q-48 144 -148 202t-276 60q-260 0 -366 -142t-107 -522q0 -258 49 -403t149 -203q99 -58 275 -60q176 0 275 60t149 204t49 402zM1368 767q0 -429 -139 -612t-472 -183t-473 184t-141 612q1 428 141 610t473 182
t472 -182t139 -611z" />
    <glyph glyph-name="Ocircumflex" unicode="&#xd4;" horiz-adv-x="1509" 
d="M690 1874h133l248 -236h-131l-182 170l-178 -170h-129zM1229 768q0 258 -49 402q-48 144 -148 202t-276 60q-260 0 -366 -142t-107 -522q0 -258 49 -403t149 -203q99 -58 275 -60q176 0 275 60t149 204t49 402zM1368 767q0 -429 -139 -612t-472 -183t-473 184t-141 612
q1 428 141 610t473 182t472 -182t139 -611z" />
    <glyph glyph-name="Otilde" unicode="&#xd5;" horiz-adv-x="1509" 
d="M630 1855q62 -1 143 -73t116 -72q66 0 90 117l61 -2q-10 -89 -51 -145t-103 -56t-142 73t-115 72q-61 1 -90 -114l-64 2q10 90 51 144q42 54 104 54zM1229 768q0 258 -49 402q-48 144 -148 202t-276 60q-260 0 -366 -142t-107 -522q0 -258 49 -403t149 -203
q99 -58 275 -60q176 0 275 60t149 204t49 402zM1368 767q0 -429 -139 -612t-472 -183t-473 184t-141 612q1 428 141 610t473 182t472 -182t139 -611z" />
    <glyph glyph-name="Odieresis" unicode="&#xd6;" horiz-adv-x="1509" 
d="M1020 1731q0 -76 -71 -76t-70 76q0 76 71 75q70 1 70 -75zM635 1731q0 -76 -71 -76t-70 76q0 76 71 75q70 1 70 -75zM1229 768q0 258 -49 402q-48 144 -148 202t-276 60q-260 0 -366 -142t-107 -522q0 -258 49 -403t149 -203q99 -58 275 -60q176 0 275 60t149 204t49 402
zM1368 767q0 -429 -139 -612t-472 -183t-473 184t-141 612q1 428 141 610t473 182t472 -182t139 -611z" />
    <glyph glyph-name="multiply" unicode="&#xd7;" horiz-adv-x="1216" 
d="M999 377l-71 -82l-318 315l-317 -315l-76 82l320 315l-318 314l74 84l319 -316l314 316l75 -84l-317 -314z" />
    <glyph glyph-name="Oslash" unicode="&#xd8;" horiz-adv-x="1509" 
d="M1229 768q0 270 -49 424l-6 2l-103 -131l-676 -823q103 -138 363 -138t366 142t105 524zM285 768q0 -297 63 -449l785 957q-103 156 -369 156t-372 -142t-107 -522zM1368 768q0 -430 -138 -613t-460 -183t-463 155l-117 -156l-69 72l127 168q-104 181 -104 583t140 584
q142 182 469 182t470 -171l141 167l70 -67l-154 -193q88 -178 88 -528z" />
    <glyph glyph-name="Ugrave" unicode="&#xd9;" horiz-adv-x="1517" 
d="M854 1642h-109l-237 234h170zM1325 1536v-981q0 -584 -566 -584t-566 584v981h135v-981q0 -233 106 -343t324 -110t325 111q106 111 107 342v981h135z" />
    <glyph glyph-name="Uacute" unicode="&#xda;" horiz-adv-x="1517" 
d="M829 1874h185l-256 -236h-107zM1325 1536v-981q0 -584 -566 -584t-566 584v981h135v-981q0 -233 106 -343t324 -110t325 111q106 111 107 342v981h135z" />
    <glyph glyph-name="Ucircumflex" unicode="&#xdb;" horiz-adv-x="1517" 
d="M690 1874h133l248 -236h-131l-182 170l-178 -170h-129zM1325 1536v-981q0 -584 -566 -584t-566 584v981h135v-981q0 -233 106 -343t324 -110t325 111q106 111 107 342v981h135z" />
    <glyph glyph-name="Udieresis" unicode="&#xdc;" horiz-adv-x="1517" 
d="M1022 1731q0 -76 -71 -76t-70 76q0 76 71 75q70 1 70 -75zM637 1731q0 -76 -71 -76t-70 76q0 76 71 75q70 1 70 -75zM1325 1536v-981q0 -584 -566 -584t-566 584v981h135v-981q0 -233 106 -343t324 -110t325 111q106 111 107 342v981h135z" />
    <glyph glyph-name="Yacute" unicode="&#xdd;" horiz-adv-x="1343" 
d="M748 1874h184l-256 -236h-107zM743 0h-137v539l-545 997h158l381 -719l74 -147h6l72 147l378 719h152l-539 -997v-539z" />
    <glyph glyph-name="Thorn" unicode="&#xde;" horiz-adv-x="1320" 
d="M668 451q221 -1 317 75t96 264t-96 263q-96 76 -317 75h-308v-677h308zM1217 795q0 -240 -127 -351t-422 -110h-308v-334h-133v1536h133v-287h308q293 0 421 -107t128 -347z" />
    <glyph glyph-name="germandbls" unicode="&#xdf;" horiz-adv-x="1273" 
d="M207 0v1047q0 250 118 383t334 133q143 0 237 -75t93 -185q0 -76 -48 -149t-106 -118q-155 -120 -155 -168q0 -32 51 -66t123 -72t144 -85t124 -124q51 -77 52 -173q0 -170 -119 -267t-327 -97t-327 88l13 114q119 -88 286 -88q168 0 258 65t91 181q1 80 -51 144
t-126 107q-74 42 -148 79q-176 88 -177 177q0 89 163 209q60 44 111 108t51 132q0 66 -59 109t-156 43q-163 0 -245 -100t-82 -293v-1059h-123z" />
    <glyph glyph-name="agrave" unicode="&#xe0;" horiz-adv-x="1163" 
d="M657 1362h-100l-211 291h162zM868 328v241q-28 21 -106 39t-176 19q-336 0 -336 -265q0 -274 285 -274q129 0 231 75t102 165zM502 -18q-174 0 -273 92q-98 92 -98 276q0 371 436 371q160 0 301 -53v149q0 168 -72 236q-74 67 -252 67t-327 -76l-14 109q172 80 385 80
t309 -100t96 -334v-799h-94l-14 170l-6 2q-49 -86 -151 -138t-226 -52z" />
    <glyph glyph-name="aacute" unicode="&#xe1;" horiz-adv-x="1163" 
d="M633 1653h164l-226 -291h-102zM868 328v241q-28 21 -106 39t-176 19q-336 0 -336 -265q0 -274 285 -274q129 0 231 75t102 165zM502 -18q-174 0 -273 92q-98 92 -98 276q0 371 436 371q160 0 301 -53v149q0 168 -72 236q-74 67 -252 67t-327 -76l-14 109q172 80 385 80
t309 -100t96 -334v-799h-94l-14 170l-6 2q-49 -86 -151 -138t-226 -52z" />
    <glyph glyph-name="acircumflex" unicode="&#xe2;" horiz-adv-x="1163" 
d="M516 1653h115l219 -291h-105l-172 231l-167 -231h-105zM868 328v241q-28 21 -106 39t-176 19q-336 0 -336 -265q0 -274 285 -274q129 0 231 75t102 165zM502 -18q-174 0 -273 92q-98 92 -98 276q0 371 436 371q160 0 301 -53v149q0 168 -72 236q-74 67 -252 67t-327 -76
l-14 109q172 80 385 80t309 -100t96 -334v-799h-94l-14 170l-6 2q-49 -86 -151 -138t-226 -52z" />
    <glyph glyph-name="atilde" unicode="&#xe3;" horiz-adv-x="1163" 
d="M446 1634q62 0 142 -76t121 -77q63 0 92 131l67 -2q-10 -102 -54 -160t-100 -59t-102 37t-88 77q-41 39 -75 39q-64 0 -95 -131l-67 2q10 99 53 159t106 60zM868 328v241q-28 21 -106 39t-176 19q-336 0 -336 -265q0 -274 285 -274q129 0 231 75t102 165zM502 -18
q-174 0 -273 92q-98 92 -98 276q0 371 436 371q160 0 301 -53v149q0 168 -72 236q-74 67 -252 67t-327 -76l-14 109q172 80 385 80t309 -100t96 -334v-799h-94l-14 170l-6 2q-49 -86 -151 -138t-226 -52z" />
    <glyph glyph-name="adieresis" unicode="&#xe4;" horiz-adv-x="1163" 
d="M739 1470q-71 0 -71 79t72 79t71 -79q0 -79 -72 -79zM434 1628q72 0 72 -79t-72 -79t-72 79t72 79zM868 328v241q-28 21 -106 39t-176 19q-336 0 -336 -265q0 -274 285 -274q129 0 231 75t102 165zM502 -18q-174 0 -273 92q-98 92 -98 276q0 371 436 371q160 0 301 -53
v149q0 168 -72 236q-74 67 -252 67t-327 -76l-14 109q172 80 385 80t309 -100t96 -334v-799h-94l-14 170l-6 2q-49 -86 -151 -138t-226 -52z" />
    <glyph glyph-name="aring" unicode="&#xe5;" horiz-adv-x="1163" 
d="M473 1526q0 -43 29 -69q29 -25 81 -25t83 26q30 26 30 69q0 41 -30 67t-83 26q-52 0 -81 -26t-29 -68zM582 1372q-84 0 -132 41t-49 112q1 71 49 113t132 43q84 0 132 -43q48 -42 48 -112t-48 -112t-132 -42zM868 328v241q-28 21 -106 39t-176 19q-336 0 -336 -265
q0 -274 285 -274q129 0 231 75t102 165zM502 -18q-174 0 -273 92q-98 92 -98 276q0 371 436 371q160 0 301 -53v149q0 168 -72 236q-74 67 -252 67t-327 -76l-14 109q172 80 385 80t309 -100t96 -334v-799h-94l-14 170l-6 2q-49 -86 -151 -138t-226 -52z" />
    <glyph glyph-name="ae" unicode="&#xe6;" horiz-adv-x="1910" 
d="M1327 1118q-330 0 -346 -420h702q-2 216 -96 318t-260 102zM868 373v192q-28 21 -106 39t-176 19q-338 0 -338 -265q0 -274 287 -274q145 0 239 83t94 206zM554 1229q180 0 268 -51t122 -162h4q117 213 393 213q209 0 332 -138t123 -419q0 -45 -2 -62h-811
q5 -286 105 -402t317 -116q168 0 334 88l16 -110q-166 -94 -364 -95q-360 0 -461 261h-6q-45 -121 -154 -190t-258 -69q-381 0 -381 379q0 358 436 359q162 0 301 -58v156q0 168 -72 236q-74 67 -252 67t-327 -76l-14 109q171 80 351 80z" />
    <glyph glyph-name="ccedilla" unicode="&#xe7;" horiz-adv-x="1026" 
d="M614 1229q162 0 301 -68l-10 -114q-131 63 -266 63q-211 0 -302 -116t-91 -388t95 -396q95 -122 277 -122t295 84l13 -109q-104 -78 -281 -88l-76 -368h-127l113 368q-223 16 -331 171t-108 469t121 464q120 150 377 150z" />
    <glyph glyph-name="egrave" unicode="&#xe8;" horiz-adv-x="1173" 
d="M682 1362h-100l-211 291h161zM598 1118q-176 0 -261 -104t-95 -316h704q-6 420 -348 420zM655 -25q-287 0 -413 159t-125 511q0 287 122 435t348 148t350 -136q124 -137 124 -420q0 -29 -4 -62h-813q4 -286 103 -402t321 -116q174 0 333 86l17 -108q-166 -95 -363 -95z
" />
    <glyph glyph-name="eacute" unicode="&#xe9;" horiz-adv-x="1173" 
d="M657 1653h164l-225 -291h-102zM598 1118q-176 0 -261 -104t-95 -316h704q-6 420 -348 420zM655 -25q-287 0 -413 159t-125 511q0 287 122 435t348 148t350 -136q124 -137 124 -420q0 -29 -4 -62h-813q4 -286 103 -402t321 -116q174 0 333 86l17 -108q-166 -95 -363 -95z
" />
    <glyph glyph-name="ecircumflex" unicode="&#xea;" horiz-adv-x="1173" 
d="M539 1653h114l219 -291h-104l-172 231l-168 -231h-104zM598 1118q-176 0 -261 -104t-95 -316h704q-6 420 -348 420zM655 -25q-287 0 -413 159t-125 511q0 287 122 435t348 148t350 -136q124 -137 124 -420q0 -29 -4 -62h-813q4 -286 103 -402t321 -116q174 0 333 86
l17 -108q-166 -95 -363 -95z" />
    <glyph glyph-name="edieresis" unicode="&#xeb;" horiz-adv-x="1173" 
d="M737 1470q-71 0 -71 79t72 79t71 -79q0 -79 -72 -79zM432 1628q72 0 72 -79t-72 -79t-72 79t72 79zM598 1118q-176 0 -261 -104t-95 -316h704q-6 420 -348 420zM655 -25q-287 0 -413 159t-125 511q0 287 122 435t348 148t350 -136q124 -137 124 -420q0 -29 -4 -62h-813
q4 -286 103 -402t321 -116q174 0 333 86l17 -108q-166 -95 -363 -95z" />
    <glyph glyph-name="igrave" unicode="&#xec;" horiz-adv-x="630" 
d="M395 1362h-100l-211 291h162zM377 0h-125v1202l125 10v-1212z" />
    <glyph glyph-name="iacute" unicode="&#xed;" horiz-adv-x="630" 
d="M371 1653h164l-226 -291h-102zM377 0h-125v1202l125 10v-1212z" />
    <glyph glyph-name="icircumflex" unicode="&#xee;" horiz-adv-x="630" 
d="M252 1653h115l219 -291h-105l-172 231l-168 -231h-104zM377 0h-125v1202l125 10v-1212z" />
    <glyph glyph-name="idieresis" unicode="&#xef;" horiz-adv-x="630" 
d="M475 1628q72 0 72 -79t-72 -79t-72 79t72 79zM170 1628q72 0 72 -79t-72 -79t-72 79t72 79zM377 0h-125v1202l125 10v-1212z" />
    <glyph glyph-name="eth" unicode="&#xf0;" horiz-adv-x="1249" 
d="M627 1065q-205 1 -294 -109t-89 -382t93 -378q93 -108 287 -108t287 136q94 136 95 433q0 408 -379 408zM1133 678q0 -371 -124 -537t-383 -166q-259 1 -384 139t-125 460t112 462q113 141 369 142q215 0 342 -121l4 4q-92 186 -276 346l-176 -145l-54 49l170 143
q-88 68 -202 133l77 68q100 -51 203 -135l162 135l53 -56l-158 -131q172 -158 281 -366t109 -424z" />
    <glyph glyph-name="ntilde" unicode="&#xf1;" horiz-adv-x="1261" 
d="M506 1634q64 0 142 -76q79 -76 120 -77q63 0 92 131l68 -2q-10 -102 -54 -160t-101 -59q-56 -1 -102 37t-87 77t-76 39q-63 0 -94 -131l-68 2q10 99 53 159t107 60zM1090 0h-123v815q0 295 -320 295q-94 0 -187 -44t-143 -120v-946h-122v1206l88 8l22 -145h6
q61 76 159 118t208 42q196 1 304 -103t108 -309v-817z" />
    <glyph glyph-name="ograve" unicode="&#xf2;" horiz-adv-x="1247" 
d="M711 1362h-101l-211 291h162zM246 601q0 -283 88 -401t292 -118t290 119t85 401q0 282 -86 398q-85 118 -289 118t-292 -118t-88 -399zM1130 601q0 -337 -118 -482t-384 -145q-267 0 -389 146t-122 481t122 481t388 146q267 0 385 -144q118 -146 118 -483z" />
    <glyph glyph-name="oacute" unicode="&#xf3;" horiz-adv-x="1247" 
d="M686 1653h164l-225 -291h-103zM246 601q0 -283 88 -401t292 -118t290 119t85 401q0 282 -86 398q-85 118 -289 118t-292 -118t-88 -399zM1130 601q0 -337 -118 -482t-384 -145q-267 0 -389 146t-122 481t122 481t388 146q267 0 385 -144q118 -146 118 -483z" />
    <glyph glyph-name="ocircumflex" unicode="&#xf4;" horiz-adv-x="1247" 
d="M567 1653h115l219 -291h-104l-172 231l-168 -231h-105zM246 601q0 -283 88 -401t292 -118t290 119t85 401q0 282 -86 398q-85 118 -289 118t-292 -118t-88 -399zM1130 601q0 -337 -118 -482t-384 -145q-267 0 -389 146t-122 481t122 481t388 146q267 0 385 -144
q118 -146 118 -483z" />
    <glyph glyph-name="otilde" unicode="&#xf5;" horiz-adv-x="1247" 
d="M500 1634q64 0 142 -76q79 -76 120 -77q63 0 92 131l68 -2q-10 -102 -54 -160t-101 -59q-56 -1 -102 37t-87 77t-76 39q-63 0 -94 -131l-68 2q10 99 53 159t107 60zM246 601q0 -283 88 -401t292 -118t290 119t85 401q0 282 -86 398q-85 118 -289 118t-292 -118t-88 -399z
M1130 601q0 -337 -118 -482t-384 -145q-267 0 -389 146t-122 481t122 481t388 146q267 0 385 -144q118 -146 118 -483z" />
    <glyph glyph-name="odieresis" unicode="&#xf6;" horiz-adv-x="1247" 
d="M776 1470q-72 0 -72 79t72 79t72 -79t-72 -79zM471 1628q72 0 72 -79t-72 -79t-72 79t72 79zM246 601q0 -283 88 -401t292 -118t290 119t85 401q0 282 -86 398q-85 118 -289 118t-292 -118t-88 -399zM1130 601q0 -337 -118 -482t-384 -145q-267 0 -389 146t-122 481
t122 481t388 146q267 0 385 -144q118 -146 118 -483z" />
    <glyph glyph-name="divide" unicode="&#xf7;" horiz-adv-x="1216" 
d="M1077 637h-936v123h936v-123zM702 388q0 -85 -95 -85t-95 85t95 85t95 -85zM702 1007q0 -85 -95 -85t-95 85t95 85t95 -85z" />
    <glyph glyph-name="oslash" unicode="&#xf8;" horiz-adv-x="1247" 
d="M246 602q0 -182 35 -305h4l106 125l516 590q-87 106 -287 106t-287 -118t-87 -398zM614 82q216 0 302 118t85 376q0 257 -55 370l-631 -721q83 -143 299 -143zM117 602q0 334 122 480t373 146t367 -110l82 107l57 -56l-84 -118q96 -147 96 -467t-118 -465t-383 -145
q-266 0 -387 141l-92 -113l-58 57l101 129q-76 145 -76 414z" />
    <glyph glyph-name="ugrave" unicode="&#xf9;" horiz-adv-x="1239" 
d="M707 1362h-101l-211 291h162zM1067 1208v-827q0 -195 -113 -300t-335 -105q-223 0 -335 106t-112 299v827h123v-823q0 -141 82 -216q81 -75 241 -75t243 74t83 217v823h123z" />
    <glyph glyph-name="uacute" unicode="&#xfa;" horiz-adv-x="1239" 
d="M682 1653h164l-225 -291h-103zM1067 1208v-827q0 -195 -113 -300t-335 -105q-223 0 -335 106t-112 299v827h123v-823q0 -141 82 -216q81 -75 241 -75t243 74t83 217v823h123z" />
    <glyph glyph-name="ucircumflex" unicode="&#xfb;" horiz-adv-x="1239" 
d="M563 1653h115l219 -291h-104l-172 231l-168 -231h-105zM1067 1208v-827q0 -195 -113 -300t-335 -105q-223 0 -335 106t-112 299v827h123v-823q0 -141 82 -216q81 -75 241 -75t243 74t83 217v823h123z" />
    <glyph glyph-name="udieresis" unicode="&#xfc;" horiz-adv-x="1239" 
d="M772 1628q72 0 72 -79t-72 -79t-72 79t72 79zM467 1628q72 0 72 -79t-72 -79t-72 79t72 79zM1067 1208v-827q0 -195 -113 -300t-335 -105q-223 0 -335 106t-112 299v827h123v-823q0 -141 82 -216q81 -75 241 -75t243 74t83 217v823h123z" />
    <glyph glyph-name="yacute" unicode="&#xfd;" horiz-adv-x="1290" 
d="M694 1653h164l-225 -291h-103zM391 -215q76 0 128 39t95 137l9 27l-537 1220h150l450 -1097h6l49 157l324 940h137l-461 -1253q-59 -150 -138 -211t-185 -61t-185 38l17 101q65 -37 141 -37z" />
    <glyph glyph-name="thorn" unicode="&#xfe;" horiz-adv-x="1286" 
d="M668 86q178 0 273 114t95 402t-87 398t-269 110q-229 0 -344 -168v-680q102 -176 332 -176zM712 1229q232 1 344 -141t113 -478t-119 -486t-354 -149q-234 0 -358 152l-4 -2l2 -166v-254h-129v1925l129 8v-401l-2 -164l4 -2q142 158 374 158z" />
    <glyph glyph-name="ydieresis" unicode="&#xff;" horiz-adv-x="1290" 
d="M870 1549q0 -79 -72 -79t-71 79q-1 79 71 79t72 -79zM565 1549q1 -79 -71 -79t-72 79t72 79t71 -79zM391 -215q76 0 128 39t95 137l9 27l-537 1220h150l450 -1097h6l49 157l324 940h137l-461 -1253q-59 -150 -138 -211t-185 -61t-185 38l17 101q65 -37 141 -37z" />
    <glyph glyph-name="dotlessi" unicode="&#x131;" horiz-adv-x="630" 
d="M377 0h-125v1202l125 10v-1212z" />
    <glyph glyph-name="IJ" unicode="&#x132;" horiz-adv-x="1734" 
d="M1507 1536v-1047q0 -252 -130 -385t-371 -133q-193 0 -314 95l15 124q115 -92 291 -92t274 100t98 294v1044h137zM258 0v1536h135v-1536h-135z" />
    <glyph glyph-name="ij" unicode="&#x133;" horiz-adv-x="1161" 
d="M977 1546q0 -86 -96 -86q-49 0 -73 20t-24 66q0 86 96 86t97 -86zM944 -35q0 -281 -256 -280q-63 0 -127 22l10 98q47 -18 91 -18q158 0 157 180v1235l125 10v-1247zM406 1542q0 -86 -96 -86t-97 86q1 86 97 86t96 -86zM371 0h-125v1202l125 10v-1212z" />
    <glyph glyph-name="Lslash" unicode="&#x141;" horiz-adv-x="1224" 
d="M408 131h761l-6 -131h-891v629l-166 -82l-12 117l178 88v784h136v-725l458 231l13 -122l-471 -230v-559z" />
    <glyph glyph-name="lslash" unicode="&#x142;" horiz-adv-x="716" 
d="M412 0h-123v897l-185 -104l-2 114l187 107v616l123 8v-571l202 115l4 -113l-206 -117v-952z" />
    <glyph glyph-name="OE" unicode="&#x152;" horiz-adv-x="2273" 
d="M1221 769q-1 382 -103 523q-102 142 -362 142t-366 -142t-107 -523q-1 -380 107 -524q108 -145 367 -145t361 144t103 525zM1231 0v240l-6 2q-117 -270 -490 -271q-317 -1 -454 185t-138 612t137 609t455 184q379 0 490 -252h6v227h893l4 -127h-774v-547h669v-114h-669
v-621h813l-6 -127h-930z" />
    <glyph glyph-name="oe" unicode="&#x153;" horiz-adv-x="2072" 
d="M1843 698q0 216 -93 318t-251 102q-342 0 -354 -420h698zM645 1118q-205 0 -294 -118t-89 -399q0 -283 89 -401t294 -118t290 119t85 401t-85 398q-85 118 -290 118zM1557 -25q-195 0 -307 70t-160 223h-7q-47 -156 -157 -226t-289 -69q-260 1 -380 147t-120 480t121 481
t379 148q350 0 442 -264h6q94 264 416 264q211 0 335 -137t124 -420q0 -29 -4 -62h-809q6 -286 104 -402t318 -116q168 0 332 88l18 -110q-166 -95 -362 -95z" />
    <glyph glyph-name="Scaron" unicode="&#x160;" horiz-adv-x="1153" 
d="M690 1638h-133l-244 236h129l181 -176l184 176h127zM1055 424q0 -213 -129 -333t-372 -120t-435 119l24 127q182 -119 412 -119q180 0 274 83t95 235q0 96 -58 163t-147 99q-250 92 -379 150q-88 40 -146 123t-59 202q0 182 120 295t348 113t403 -82l-25 -121
q-183 78 -363 78t-267 -78t-87 -197q0 -151 158 -225q70 -33 154 -62q84 -30 167 -62q84 -32 154 -77t114 -123t44 -188z" />
    <glyph glyph-name="scaron" unicode="&#x161;" horiz-adv-x="1003" 
d="M582 1362h-115l-217 291h106l168 -230l168 230h109zM901 340q0 -170 -100 -267t-317 -97t-357 110l20 113q137 -115 347 -115q147 0 219 67q71 67 71 166t-67 155q-68 56 -163 87t-190 66t-163 105t-68 181q1 150 105 234t288 84t326 -70l-12 -108q-152 67 -294 67
t-218 -54t-76 -141t66 -139q67 -52 163 -80q95 -28 191 -62t163 -108q66 -75 66 -194z" />
    <glyph glyph-name="Ydieresis" unicode="&#x178;" horiz-adv-x="1343" 
d="M938 1731q0 -76 -71 -76t-70 76q0 76 71 75q70 1 70 -75zM553 1731q0 -76 -71 -76t-70 76q0 76 71 75q70 1 70 -75zM743 0h-137v539l-545 997h158l381 -719l74 -147h6l72 147l378 719h152l-539 -997v-539z" />
    <glyph glyph-name="Zcaron" unicode="&#x17d;" horiz-adv-x="1261" 
d="M700 1638h-133l-243 236h129l180 -176l184 176h127zM113 0v92l770 1178l92 133l-2 4h-834l6 129h994v-106l-764 -1164l-92 -131l2 -6h856l-6 -129h-1022z" />
    <glyph glyph-name="zcaron" unicode="&#x17e;" horiz-adv-x="1114" 
d="M631 1362h-115l-217 291h107l167 -230l168 230h109zM143 0v90l588 871l94 131l-2 4h-653l4 112h799v-92l-586 -870l-94 -129l2 -6h686l-4 -111h-834z" />
    <glyph glyph-name="florin" unicode="&#x192;" horiz-adv-x="817" 
d="M698 1595q88 0 156 -26l-31 -90q-51 23 -121 22q-182 0 -219 -176l-22 -117h313l-22 -102h-314l-305 -1403h-121l303 1403h-129l21 102h129l24 119q57 268 338 268z" />
    <glyph glyph-name="circumflex" unicode="&#x2c6;" 
d="M346 1653h115l219 -291h-105l-172 231l-167 -231h-105z" />
    <glyph glyph-name="caron" unicode="&#x2c7;" 
d="M463 1362h-115l-217 291h107l168 -230l167 230h109z" />
    <glyph glyph-name="breve" unicode="&#x2d8;" 
d="M580 1653h94q0 -143 -68 -225t-200 -80q-270 0 -271 305h94q1 -111 49 -169t128 -58t127 58t47 169z" />
    <glyph glyph-name="dotaccent" unicode="&#x2d9;" 
d="M500 1546q0 -86 -96 -86t-97 86q1 86 97 86t96 -86z" />
    <glyph glyph-name="ring" unicode="&#x2da;" 
d="M297 1526q0 -43 29 -69q29 -25 81 -25q53 0 83 26t30 69q0 41 -31 67t-83 26t-80 -26q-29 -26 -29 -68zM225 1525q0 71 48 113q49 42 133 43q84 0 132 -43q48 -42 48 -112t-48 -112t-132 -42t-133 41q-48 41 -48 112z" />
    <glyph glyph-name="ogonek" unicode="&#x2db;" 
d="M488 -365q-99 0 -146 44t-47 117t49 134t135 95l53 -25q-139 -61 -139 -180q0 -98 127 -99q74 0 133 33l13 -71q-79 -48 -178 -48z" />
    <glyph glyph-name="tilde" unicode="&#x2dc;" 
d="M286 1634q64 0 143 -76t120 -77q63 0 92 131l68 -2q-11 -102 -55 -160t-100 -59t-102 37t-87 77t-76 39q-63 0 -94 -131l-68 2q10 99 53 159q42 60 106 60z" />
    <glyph glyph-name="hungarumlaut" unicode="&#x2dd;" 
d="M680 1653h149l-227 -291h-100zM395 1653h148l-221 -291h-89z" />
    <glyph glyph-name="Delta" unicode="&#x394;" horiz-adv-x="1558" 
d="M776 1391l-59 -156l-443 -1116h1004l-440 1116l-56 156h-6zM825 1544l627 -1544h-1348l627 1544h94z" />
    <glyph glyph-name="Omega" unicode="&#x3a9;" horiz-adv-x="1515" 
d="M758 1561q298 0 448 -168t150 -521q0 -222 -98 -418t-293 -333v-6h407v-115h-522v158q172 135 269 318t98 392q0 293 -110 429q-109 137 -349 137t-350 -136t-109 -430q0 -209 97 -392t270 -318v-158h-523v115h408l2 6q-197 137 -295 334t-98 417q0 689 598 689z" />
    <glyph glyph-name="mu" unicode="&#x3bc;" horiz-adv-x="1261" 
d="M657 -23q-115 -1 -210 47t-142 148l-4 -2q10 -289 21 -465l-127 -12v1515h124l-2 -817q1 -141 95 -221t237 -80t230 69q86 69 86 193v856h125v-1206l-91 -10l-20 135l-6 2q-87 -152 -316 -152z" />
    <glyph glyph-name="pi" unicode="&#x3c0;" horiz-adv-x="1376" 
d="M934 281v813h-496v-1094h-123v1094q-145 -6 -209 -58l-43 101q82 72 304 71h903v-112h-215v-815q0 -106 32 -146q33 -39 127 -39v-102q-168 0 -224 60t-56 227z" />
    <glyph glyph-name="endash" unicode="&#x2013;" horiz-adv-x="1107" 
d="M164 745h780v-98h-780v98z" />
    <glyph glyph-name="emdash" unicode="&#x2014;" horiz-adv-x="1462" 
d="M164 745h1134v-98h-1134v98z" />
    <glyph glyph-name="quoteleft" unicode="&#x2018;" horiz-adv-x="452" 
d="M227 1233q-94 0 -94 102q0 45 41 159t84 194l49 -13l-53 -254q29 -9 48 -33t20 -55q-1 -100 -95 -100z" />
    <glyph glyph-name="quoteright" unicode="&#x2019;" horiz-adv-x="454" 
d="M226 1634q95 0 96 -102q0 -45 -42 -159t-85 -193l-48 12l54 254q-29 8 -49 33t-21 55q0 100 95 100z" />
    <glyph glyph-name="quotesinglbase" unicode="&#x201a;" horiz-adv-x="454" 
d="M226 168q95 0 96 -102q0 -45 -42 -159t-85 -194l-48 13l54 254q-29 8 -49 32t-21 56q0 100 95 100z" />
    <glyph glyph-name="quotedblleft" unicode="&#x201c;" horiz-adv-x="790" 
d="M659 1333q0 -100 -95 -100t-95 102q0 45 43 158t86 195l45 -13l-53 -254q29 -9 49 -33t20 -55zM227 1233q-94 0 -94 102q0 45 41 159t84 194l49 -13l-53 -254q29 -9 48 -33t20 -55q-1 -100 -95 -100z" />
    <glyph glyph-name="quotedblright" unicode="&#x201d;" horiz-adv-x="790" 
d="M467 1532q0 100 95 100t95 -102q0 -45 -42 -159t-85 -193l-47 12l54 254q-29 8 -50 33q-20 25 -20 55zM226 1632q95 0 96 -102q0 -45 -42 -159t-85 -193l-48 12l54 254q-29 8 -49 33t-21 55q0 100 95 100z" />
    <glyph glyph-name="quotedblbase" unicode="&#x201e;" horiz-adv-x="790" 
d="M226 168q95 0 96 -102q0 -45 -42 -159t-85 -194l-48 13l54 254q-29 8 -49 32t-21 56q0 100 95 100zM469 68q0 100 95 100t95 -102q0 -45 -42 -159t-85 -194l-47 13l54 254q-29 8 -50 32q-20 25 -20 56z" />
    <glyph glyph-name="dagger" unicode="&#x2020;" horiz-adv-x="1036" 
d="M109 1217l352 -11l-10 426h120l-8 -426l365 11v-125l-365 8l8 -1393h-120l10 1393l-352 -8v125z" />
    <glyph glyph-name="daggerdbl" unicode="&#x2021;" horiz-adv-x="1036" 
d="M928 250v-123l-365 10l8 -432h-120l10 432l-352 -10v121l354 -8l-2 862l-352 -8v123l352 -11l-10 426h120l-8 -426l365 11v-123l-365 8v-862z" />
    <glyph glyph-name="bullet" unicode="&#x2022;" horiz-adv-x="823" 
d="M158 658q0 255 249 255t249 -255t-250 -255q-248 0 -248 255z" />
    <glyph glyph-name="ellipsis" unicode="&#x2026;" horiz-adv-x="1243" 
d="M344 75q0 -95 -96 -95t-96 95t96 95t96 -95zM729 75q0 -95 -96 -95t-96 95t96 95t96 -95zM1092 75q0 -95 -96 -95t-97 95q1 95 97 95t96 -95z" />
    <glyph glyph-name="perthousand" unicode="&#x2030;" horiz-adv-x="2054" 
d="M1851 343q0 153 -45 211t-145 58t-145 -58q-46 -58 -46 -211t46 -211t145 -58q100 0 145 58t45 211zM1939 346q-1 -192 -69 -276t-212 -84t-211 84t-67 273t65 274t211 85t215 -82q68 -82 68 -274zM1219 343q0 153 -44 211q-45 58 -145 58t-145 -58t-45 -211t45 -211
t145 -58t145 58q44 58 44 211zM1026 702q145 0 213 -82t68 -274q0 -190 -68 -275t-211 -85t-211 84q-67 84 -67 273t65 274q66 85 211 85zM1044 1526l84 -56l-776 -1456l-84 56zM584 1210q0 154 -44 212t-144 58t-146 -58q-45 -58 -45 -212t46 -212t145 -58t144 58
q44 58 44 212zM674 1212q0 -192 -69 -276t-212 -84t-210 84t-67 273t65 274q65 84 211 84t214 -82q68 -81 68 -273z" />
    <glyph glyph-name="guilsinglleft" unicode="&#x2039;" horiz-adv-x="841" 
d="M680 942l-432 -268l432 -266v-111l-569 371v14l569 369v-109z" />
    <glyph glyph-name="guilsinglright" unicode="&#x203a;" horiz-adv-x="841" 
d="M162 297v111l432 266l-432 268v109l569 -369v-14z" />
    <glyph glyph-name="fraction" unicode="&#x2044;" horiz-adv-x="567" 
d="M784 1536h101l-1041 -1536h-100z" />
    <glyph glyph-name="uni2070" unicode="&#x2070;" horiz-adv-x="735" 
d="M557 1434q0 188 -43 256t-145 68t-147 -68q-44 -68 -44 -256t44 -257t146 -69t146 69q43 69 43 257zM370 1847q160 0 228 -94t68 -318q0 -225 -70 -321t-228 -96t-227 96t-69 320t69 319q70 94 229 94z" />
    <glyph glyph-name="uni2074" unicode="&#x2074;" horiz-adv-x="735" 
d="M494 1296l2 279l6 166l-4 2l-209 -311l-94 -129l2 -7h297zM592 1208v-180h-100v180h-412l-8 62l389 565h131v-539h104l-4 -88h-100z" />
    <glyph glyph-name="uni2075" unicode="&#x2075;" horiz-adv-x="735" 
d="M653 1305q0 -285 -286 -285q-145 0 -244 61l20 88q105 -61 209 -61t151 46q46 46 46 144q0 154 -180 154q-106 0 -197 -41l-45 37l35 387h452l2 -92h-370l-21 -232q84 27 164 27q264 0 264 -233z" />
    <glyph glyph-name="uni2076" unicode="&#x2076;" horiz-adv-x="735" 
d="M553 1305q0 83 -41 119q-40 36 -110 36q-144 0 -207 -80q2 -146 45 -208t139 -62q174 0 174 195zM659 1305q0 -285 -280 -285q-147 0 -221 90t-74 295q0 442 346 442q92 0 186 -35l-10 -88q-68 29 -176 29q-218 0 -244 -276l4 -4q88 70 209 69q260 1 260 -237z" />
    <glyph glyph-name="uni2077" unicode="&#x2077;" horiz-adv-x="735" 
d="M659 1835v-88l-348 -719h-127l359 709h-459l6 98h569z" />
    <glyph glyph-name="uni2078" unicode="&#x2078;" horiz-adv-x="735" 
d="M211 1636q0 -78 87 -114q58 -24 116 -39q115 55 114 149q0 131 -158 131t-159 -127zM553 1245q1 49 -21 71l-34 33q-15 13 -76 36q-61 22 -105 34q-135 -63 -135 -170q0 -77 43 -111t146 -34q182 0 182 141zM76 1260q0 126 153 192v6q-121 51 -120 182q0 207 259 207
t259 -207q0 -123 -123 -184v-4q156 -55 155 -201q0 -231 -288 -231q-152 0 -224 57q-71 57 -71 183z" />
    <glyph glyph-name="uni2079" unicode="&#x2079;" horiz-adv-x="735" 
d="M362 1761q-90 0 -135 -42t-45 -115q0 -166 180 -166q128 -1 183 73q-2 135 -48 193q-45 58 -135 57zM647 1473q0 -236 -80 -345t-243 -108q-106 0 -189 37l17 86q78 -35 179 -35q209 0 226 326l-4 2q-82 -78 -201 -78q-268 0 -268 241q0 113 68 181t200 67
q295 1 295 -374z" />
    <glyph glyph-name="uni207A" unicode="&#x207a;" horiz-adv-x="739" 
d="M647 1397h-239v-238h-80v238h-236v86h236v241h80v-241h239v-86z" />
    <glyph glyph-name="uni207B" unicode="&#x207b;" horiz-adv-x="739" 
d="M645 1403h-541v86h541v-86z" />
    <glyph glyph-name="uni207C" unicode="&#x207c;" horiz-adv-x="739" 
d="M645 1294h-549v78h549v-78zM645 1518h-549v75h549v-75z" />
    <glyph glyph-name="uni207D" unicode="&#x207d;" horiz-adv-x="417" 
d="M233 1406q0 -273 150 -497l-78 -6q-172 199 -172 494t172 506l78 -7q-150 -217 -150 -490z" />
    <glyph glyph-name="uni207E" unicode="&#x207e;" horiz-adv-x="417" 
d="M285 1399q0 -297 -172 -496l-78 6q150 227 150 495t-150 492l78 7q172 -207 172 -504z" />
    <glyph glyph-name="uni2080" unicode="&#x2080;" horiz-adv-x="735" 
d="M557 111q0 188 -43 256q-43 67 -145 67t-147 -67q-44 -68 -44 -256t44 -257t146 -69t146 69q43 69 43 257zM370 524q160 0 228 -94t68 -318t-70 -320t-228 -97q-158 0 -227 96q-69 97 -69 321t69 318q70 94 229 94z" />
    <glyph glyph-name="uni2081" unicode="&#x2081;" horiz-adv-x="540" 
d="M393 518v-813h-108v508l6 162l-6 2l-174 -117l-11 90l228 168h65z" />
    <glyph glyph-name="uni2082" unicode="&#x2082;" horiz-adv-x="698" 
d="M345 524q140 0 209 -60t69 -172q1 -110 -93 -218t-299 -271v-6h400l-2 -92h-537v72q24 23 90 82t90 83l74 72q130 130 156 213q10 33 10 64q0 63 -43 101t-141 38t-207 -80l-29 86q113 88 253 88z" />
    <glyph glyph-name="uni2083" unicode="&#x2083;" horiz-adv-x="698" 
d="M311 -215q211 0 211 168q0 79 -59 111t-207 32v78q133 0 190 35t58 104q0 121 -172 121q-129 0 -226 -78l-26 80q102 88 242 88t210 -53q72 -53 72 -152q0 -139 -147 -180v-4q168 -34 168 -188q0 -250 -299 -250q-145 0 -254 65l26 84q100 -61 213 -61z" />
    <glyph glyph-name="uni2084" unicode="&#x2084;" horiz-adv-x="735" 
d="M494 -27l2 279l6 166l-4 2l-209 -311l-94 -129l2 -7h297zM592 -115v-180h-100v180h-412l-8 62l389 565h131v-539h104l-4 -88h-100z" />
    <glyph glyph-name="uni2085" unicode="&#x2085;" horiz-adv-x="735" 
d="M653 -18q0 -285 -286 -285q-145 0 -244 61l20 88q105 -61 209 -61t151 46q46 46 46 144q0 154 -180 154q-106 0 -197 -41l-45 37l35 387h452l2 -92h-370l-21 -232q84 27 164 27q264 0 264 -233z" />
    <glyph glyph-name="uni2086" unicode="&#x2086;" horiz-adv-x="735" 
d="M553 -18q0 82 -41 118q-40 36 -110 37q-144 0 -207 -80q2 -147 45 -209t139 -61q174 0 174 195zM659 -18q0 -285 -280 -285q-147 0 -221 90t-74 295q0 442 346 442q92 0 186 -35l-10 -88q-68 29 -176 29t-170 -66q-61 -66 -74 -210l7 -4q82 70 206 69q260 1 260 -237z
" />
    <glyph glyph-name="uni2087" unicode="&#x2087;" horiz-adv-x="735" 
d="M659 512v-88l-348 -719h-127l359 709h-459l6 98h569z" />
    <glyph glyph-name="uni2088" unicode="&#x2088;" horiz-adv-x="735" 
d="M211 313q0 -78 87 -114q58 -24 116 -39q115 55 114 149q0 131 -158 131t-159 -127zM553 -78q1 48 -21 70l-34 34q-15 13 -76 36q-61 22 -105 34q-135 -63 -135 -170q0 -76 43 -110t146 -35q182 0 182 141zM76 -63q0 126 153 192v6q-121 51 -120 182q0 207 259 207
t259 -207q0 -123 -123 -184v-4q156 -55 155 -201q0 -231 -288 -231q-152 0 -224 57q-71 57 -71 183z" />
    <glyph glyph-name="uni2089" unicode="&#x2089;" horiz-adv-x="735" 
d="M362 438q-90 0 -135 -42t-45 -115q0 -166 180 -166q126 -1 183 73q-2 134 -48 192q-45 58 -135 58zM647 150q0 -236 -80 -345t-243 -108q-106 0 -189 37l17 86q78 -35 179 -35q209 0 226 326l-4 2q-82 -78 -201 -78q-268 0 -268 241q0 113 68 181t200 67q295 1 295 -374z
" />
    <glyph glyph-name="uni208A" unicode="&#x208a;" horiz-adv-x="739" 
d="M647 74h-239v-238h-80v238h-236v86h236v241h80v-241h239v-86z" />
    <glyph glyph-name="uni208B" unicode="&#x208b;" horiz-adv-x="739" 
d="M645 80h-541v86h541v-86z" />
    <glyph glyph-name="uni208C" unicode="&#x208c;" horiz-adv-x="739" 
d="M645 -29h-549v78h549v-78zM645 195h-549v75h549v-75z" />
    <glyph glyph-name="uni208D" unicode="&#x208d;" horiz-adv-x="417" 
d="M233 88q0 -274 150 -498l-78 -6q-172 199 -172 494t172 506l78 -6q-150 -216 -150 -490z" />
    <glyph glyph-name="uni208E" unicode="&#x208e;" horiz-adv-x="417" 
d="M285 80q0 -297 -172 -496l-78 6q150 227 150 495t-150 493l78 6q172 -207 172 -504z" />
    <glyph glyph-name="franc" unicode="&#x20a3;" horiz-adv-x="1261" 
d="M47 346h195v1190h905l2 -131h-772v-549h606v-123h-606v-387h201v-100h-201v-246h-135v246h-195v100z" />
    <glyph glyph-name="lira" unicode="&#x20a4;" horiz-adv-x="1380" 
d="M340 473q0 49 -8 131h-142l-4 88h131q-16 80 -32 142h-99l-6 90h80q-29 111 -29 200q0 193 125 312t402 118q215 0 387 -84l-21 -120q-156 82 -358 82t-301 -87q-98 -87 -98 -231q0 -82 24 -190h623v-90h-600q14 -51 32 -142h568v-88h-555q8 -78 8 -125q0 -252 -158 -364
l2 -4q360 58 920 4l-8 -127q-307 30 -543 30t-543 -28l-4 119q100 41 154 139q53 98 53 225z" />
    <glyph glyph-name="peseta" unicode="&#x20a7;" horiz-adv-x="1599" 
d="M1507 252q0 -274 -194 -275q-86 0 -139 50l4 98q57 -51 129 -51q115 0 114 176q0 119 -89 182q-38 26 -75 56q-88 70 -88 203q1 133 51 199t130 66t137 -41l-8 -94q-53 35 -113 35q-106 0 -106 -145q0 -107 88 -164q36 -25 72 -55t62 -90t25 -150zM1100 854h-129v-670
q0 -109 73 -108q25 0 43 12l5 -90q-20 -16 -70 -16q-145 0 -145 200v672h-68v88h70l16 223l76 11v-234h129v-88zM422 762q125 0 176 70t51 262t-50 262t-177 69h-156v-663h156zM758 1102q0 -244 -78 -345t-258 -102h-156v-655h-102v1536h258q178 0 257 -95t79 -339z" />
    <glyph glyph-name="Euro" unicode="&#x20ac;" horiz-adv-x="1406" 
d="M884 98q218 0 396 111l14 -107q-168 -119 -420 -118q-293 0 -438 152t-174 476h-186v86h182q-2 31 -2 97v49h-180v90h186q29 301 187 459t436 157q229 0 372 -80l-28 -108q-154 68 -326 68q-457 0 -512 -496h692l-22 -90h-678v-60q0 -59 2 -86h619l-23 -86h-590
q27 -270 151 -392t342 -122z" />
    <glyph glyph-name="trademark" unicode="&#x2122;" horiz-adv-x="1325" 
d="M520 1513h-180v-479h-78v479h-182v74h440v-74zM1208 1034h-67v299l4 166l-6 2l-197 -467h-59l-199 467l-4 -2l2 -166v-299h-70v553h105l194 -459h7l61 152l133 307h96v-553z" />
    <glyph glyph-name="uni2126" unicode="&#x2126;" horiz-adv-x="1515" 
d="M758 1561q298 0 448 -168t150 -521q0 -222 -98 -418t-293 -333v-6h407v-115h-522v158q172 135 269 318t98 392q0 293 -110 429q-109 137 -349 137t-350 -136t-109 -430q0 -209 97 -392t270 -318v-158h-523v115h408l2 6q-197 137 -295 334t-98 417q0 689 598 689z" />
    <glyph glyph-name="onethird" unicode="&#x2153;" horiz-adv-x="1779" 
d="M557 1540v-813h-108v508l6 162l-6 2l-175 -117l-10 90l228 168h65zM1339 1536h101l-1041 -1536h-100zM1616 242q0 -119 -75 -186q-75 -66 -220 -66t-258 65l24 86q98 -63 212 -63t163 46t49 123t-58 111t-206 33v78q133 0 190 34q56 34 56 103q0 121 -172 121
q-129 0 -223 -76l-29 80q103 86 243 86t212 -52t71 -151q0 -141 -143 -182v-4q164 -34 164 -186z" />
    <glyph glyph-name="twothirds" unicode="&#x2154;" horiz-adv-x="1779" 
d="M1620 242q0 -119 -75 -186q-75 -66 -220 -66t-258 65l25 86q98 -63 212 -63t162 46q50 46 50 123t-58 111t-207 33v78q133 0 190 34q56 34 56 103q0 121 -172 121q-129 0 -223 -76l-29 80q103 86 243 86t212 -52t71 -151q0 -141 -143 -182v-4q164 -34 164 -186z
M1358 1536h100l-1040 -1536h-101zM386 1546q140 0 209 -60t69 -172q0 -110 -94 -220t-298 -269v-6h400l-2 -92h-537v72q25 23 91 82t90 83l73 72q130 130 156 213q10 33 10 64q0 63 -43 101t-141 38t-207 -80l-29 86q113 88 253 88z" />
    <glyph glyph-name="oneeighth" unicode="&#x215b;" horiz-adv-x="1779" 
d="M1159 608q0 -78 87 -114q58 -24 116 -39q115 57 115 147q0 133 -159 133t-159 -127zM1501 215q0 64 -42 94q-42 29 -68 39q-27 10 -50 19t-73 22q-137 -63 -138 -168q0 -77 44 -111t145 -34q182 0 182 139zM1024 221q0 135 156 203v6q-123 53 -123 182q0 205 259 205
t259 -205q0 -121 -123 -186v-4q156 -55 156 -201q0 -231 -292 -231t-292 231zM1337 1536h101l-1041 -1536h-100zM567 1540v-813h-108v508l6 162l-6 2l-174 -117l-11 90l228 168h65z" />
    <glyph glyph-name="threeeighths" unicode="&#x215c;" horiz-adv-x="1779" 
d="M1174 608q0 -52 36 -85t166 -68q115 57 115 147q-1 133 -159 133t-158 -127zM1516 215q0 64 -46 95q-18 12 -28 20t-37 18t-50 19t-73 22q-137 -63 -137 -168q0 -77 43 -111t145 -34q183 0 183 139zM1038 221q0 135 156 203v6q-123 53 -123 182q0 205 259 205t259 -205
q0 -121 -123 -186v-4q156 -55 156 -201q0 -231 -292 -231t-292 231zM1354 1536h100l-1040 -1536h-101zM696 969q0 -250 -299 -250q-145 0 -254 65l27 84q100 -61 212 -61q212 0 212 168q0 79 -59 111t-207 32v78q133 0 190 35t57 104q0 121 -172 121q-127 0 -225 -76l-26 78
q102 88 242 88q282 0 282 -205q0 -139 -148 -180v-4q168 -34 168 -188z" />
    <glyph glyph-name="fiveeighths" unicode="&#x215d;" horiz-adv-x="1779" 
d="M1169 608q0 -78 87 -114q56 -23 116 -39q115 57 115 147q0 133 -159 133t-159 -127zM1511 215q0 64 -45 95q-18 12 -28 20t-37 18t-50 19t-73 22q-137 -63 -137 -168q0 -77 43 -111t145 -34q182 0 182 139zM1034 221q0 135 156 203v6q-123 53 -123 182q0 205 259 205
t259 -205q0 -121 -123 -186v-4q156 -55 156 -201q0 -231 -292 -231t-292 231zM1348 1536h100l-1040 -1536h-101zM780 1004q0 -285 -286 -285q-145 0 -244 61l20 88q106 -61 210 -61t150 46t46 144q0 154 -180 154q-115 0 -197 -41l-45 37l35 387h452l2 -90h-370l-21 -232
q84 27 164 27q264 1 264 -235z" />
    <glyph glyph-name="seveneighths" unicode="&#x215e;" horiz-adv-x="1779" 
d="M1159 608q0 -78 87 -114q58 -24 116 -39q115 57 115 147q0 133 -159 133t-159 -127zM1501 215q0 64 -42 94q-42 29 -68 39q-27 10 -50 19t-73 22q-137 -63 -138 -168q0 -77 44 -111t145 -34q182 0 182 139zM1024 221q0 135 156 203v6q-123 53 -123 182q0 205 259 205
t259 -205q0 -121 -123 -186v-4q156 -55 156 -201q0 -231 -292 -231t-292 231zM1335 1536h101l-1041 -1536h-100zM848 1534v-88l-348 -719h-127l358 709h-459l7 98h569z" />
    <glyph glyph-name="partialdiff" unicode="&#x2202;" horiz-adv-x="1284" 
d="M1036 795q0 102 -91 183t-245 81q-216 0 -336 -157t-120 -447q0 -375 323 -375q219 0 344 211t125 504zM669 1163q255 0 375 -155l5 4q-53 428 -433 428q-233 0 -389 -146l-39 92q182 166 436 166t398 -172q145 -172 145 -538t-167 -617q-167 -252 -449 -252
q-434 0 -434 488q0 326 148 514q149 188 404 188z" />
    <glyph glyph-name="uni2206" unicode="&#x2206;" horiz-adv-x="1558" 
d="M776 1391l-59 -156l-443 -1116h1004l-440 1116l-56 156h-6zM825 1544l627 -1544h-1348l627 1544h94z" />
    <glyph glyph-name="product" unicode="&#x220f;" horiz-adv-x="1517" 
d="M455 -301h-117v1733l-182 10l-2 94h1216l-2 -92l-180 -12v-1733h-119v1724h-614v-1724z" />
    <glyph glyph-name="summation" unicode="&#x2211;" horiz-adv-x="1445" 
d="M219 -301v80l627 858l-627 815v84h1073l4 -113h-913l-2 -4l102 -125l496 -643v-33l-508 -679l-102 -129l4 -7l164 4l798 5l-6 -113h-1110z" />
    <glyph glyph-name="minus" unicode="&#x2212;" horiz-adv-x="1216" 
d="M1047 637h-875v123h875v-123z" />
    <glyph glyph-name="uni2219" unicode="&#x2219;" horiz-adv-x="565" 
d="M282 799q96 0 97 -95q0 -96 -96 -96t-97 97q0 94 96 94z" />
    <glyph glyph-name="radical" unicode="&#x221a;" horiz-adv-x="1163" 
d="M20 881v118h269l289 -866h6l41 160l383 1343h129l-480 -1636h-147l-309 881h-181z" />
    <glyph glyph-name="infinity" unicode="&#x221e;" horiz-adv-x="1492" 
d="M1072 471q97 0 152 70q54 71 54 181t-58 176t-142 67q-85 0 -125 -36t-56 -51q-16 -14 -43 -64t-33 -64t-35 -74q55 -102 122 -154t164 -51zM418 969q-96 0 -150 -70q-54 -71 -55 -181t57 -176t144 -67q86 0 124 34t62 58t52 83t53 110q-55 106 -123 158t-164 51z
M1077 365q-209 0 -340 210q-57 -100 -131 -155t-200 -55t-213 94t-87 258t82 262t226 98q205 0 340 -215q57 102 131 158q75 56 201 57q126 0 213 -96t87 -258t-83 -260t-226 -98z" />
    <glyph glyph-name="uni2224" unicode="&#x2224;" horiz-adv-x="565" 
d="M282 799q96 0 97 -95q0 -96 -96 -96t-97 97q0 94 96 94z" />
    <glyph glyph-name="logicaland" unicode="&#x2227;" horiz-adv-x="565" 
d="M282 799q96 0 97 -95q0 -96 -96 -96t-97 97q0 94 96 94z" />
    <glyph glyph-name="integral" unicode="&#x222b;" horiz-adv-x="638" 
d="M254 72v1181q0 183 94 283t275 102l4 -94q-117 -2 -179 -77t-63 -216l-2 -1175q0 -389 -371 -389l-2 92q129 2 187 74q57 72 57 219z" />
    <glyph glyph-name="approxequal" unicode="&#x2248;" horiz-adv-x="1339" 
d="M893 416q-79 0 -231 59t-220 60q-111 0 -223 -74v108q109 74 205 74t248 -60t221 -61q119 0 227 74v-109q-102 -71 -227 -71zM893 754q-79 0 -231 59t-220 59q-115 0 -223 -71v108q105 72 203 72t250 -60t221 -61q109 0 227 74v-107q-104 -73 -227 -73z" />
    <glyph glyph-name="notequal" unicode="&#x2260;" horiz-adv-x="1339" 
d="M1120 922v-107h-336l-127 -242h463v-106h-518l-137 -266l-88 45l115 221h-273v106h328l127 242h-455v107h510l135 258l86 -45l-110 -213h280z" />
    <glyph glyph-name="lessequal" unicode="&#x2264;" horiz-adv-x="1339" 
d="M1098 123h-869v106h869v-106zM1098 1102l-631 -260l-154 -60v-6l156 -57l629 -246v-127l-879 373v123l879 389v-129z" />
    <glyph glyph-name="greaterequal" unicode="&#x2265;" horiz-adv-x="1339" 
d="M1087 123h-868v106h868v-106zM221 346v127l627 246l156 57v6l-156 60l-627 260v129l877 -389v-123z" />
    <glyph glyph-name="dotmath" unicode="&#x22c5;" horiz-adv-x="565" 
d="M282 799q96 0 97 -95q0 -96 -96 -96t-97 97q0 94 96 94z" />
    <glyph glyph-name="lozenge" unicode="&#x25ca;" horiz-adv-x="1241" 
d="M618 1141l-409 -479l412 -478l411 478zM68 662l553 647l555 -647l-555 -646z" />
    <glyph glyph-name="parenleft.case" horiz-adv-x="649" 
d="M330 773q0 -517 311 -949l-111 -8q-150 178 -234 425q-85 247 -85 527q0 544 319 952l113 -8q-313 -422 -313 -939z" />
    <glyph glyph-name="parenright.case" horiz-adv-x="649" 
d="M436 768q0 -280 -84 -528t-233 -424l-111 8q311 428 311 945t-313 943l113 8q317 -406 317 -952z" />
    <glyph glyph-name="hyphen.case" horiz-adv-x="847" 
d="M164 817h518v-98h-518v98z" />
    <glyph glyph-name="bracketleft.case" horiz-adv-x="638" 
d="M211 -180v1896h422v-100h-307v-1698h307v-98h-422z" />
    <glyph glyph-name="bracketright.case" horiz-adv-x="641" 
d="M428 1716v-1896h-422v96h309v1700h-309v100h422z" />
    <glyph glyph-name="grave.case" 
d="M543 1642h-109l-237 234h170z" />
    <glyph glyph-name="braceleft.case" horiz-adv-x="739" 
d="M492 975q0 -160 -130 -203v-6q129 -49 130 -205q0 -90 -16 -233q-16 -142 -17 -230q0 -88 50 -132t167 -44h57v-102h-51q-182 0 -262 66t-80 194q0 92 20 245t20 231t-44 125q-45 46 -125 54v66q80 8 125 54t45 125q-1 78 -21 230t-20 244q0 131 80 197t262 65h51v-104
h-57q-119 0 -168 -43t-49 -131q1 -88 17 -230t16 -233z" />
    <glyph glyph-name="braceright.case" horiz-adv-x="739" 
d="M246 561q0 156 131 205v6q-131 43 -131 203q0 90 18 232q18 143 18 231t-50 131t-169 43h-57v104h51q182 0 262 -66t80 -196q0 -92 -20 -244q-21 -152 -21 -230t45 -125q45 -46 125 -54v-66q-80 -8 -125 -54t-45 -125q0 -80 20 -232t21 -244q0 -129 -80 -195t-262 -65
h-51v102h57q119 0 169 44t50 131t-18 231t-18 233z" />
    <glyph glyph-name="dieresis.case" 
d="M672 1731q0 -76 -71 -76t-71 76t72 75q70 1 70 -75zM287 1731q0 -76 -71 -76t-71 76t72 75q70 1 70 -75z" />
    <glyph glyph-name="guillemotleft.case" horiz-adv-x="1249" 
d="M631 1036l-432 -268l432 -266v-111l-570 371v14l570 369v-109zM1034 1036l-432 -268l432 -266v-111l-569 371v14l569 369v-109z" />
    <glyph glyph-name="uni00AD.case" horiz-adv-x="847" 
d="M164 817h518v-98h-518v98z" />
    <glyph glyph-name="macron.case" 
d="M674 1753v-76h-539v76h539z" />
    <glyph glyph-name="acute.case" 
d="M453 1874h184l-256 -236h-107z" />
    <glyph glyph-name="guillemotright.case" horiz-adv-x="1249" 
d="M172 391v111l432 266l-432 268v109l569 -369v-14zM578 391v111l432 266l-432 268v109l569 -369v-14z" />
    <glyph glyph-name="circumflex.case" 
d="M334 1874h133l248 -236h-131l-183 170l-178 -170h-129z" />
    <glyph glyph-name="caron.case" 
d="M471 1638h-133l-244 236h129l180 -176l185 176h127z" />
    <glyph glyph-name="breve.case" 
d="M606 1874h99q0 -118 -75 -182t-222 -64q-301 0 -302 246h99q1 -166 201 -166t200 166z" />
    <glyph glyph-name="dotaccent.case" 
d="M500 1733q0 -82 -94 -82q-51 0 -74 18t-23 64q-1 82 95 82t96 -82z" />
    <glyph glyph-name="ring.case" 
d="M307 1667q0 -82 95 -82t96 82q0 82 -96 82t-95 -82zM233 1669q1 68 45 108t122 40t124 -40q45 -40 45 -108q0 -67 -44 -107t-124 -40q-168 0 -168 147z" />
    <glyph glyph-name="ogonek.case" 
d="M385 -164q0 -115 131 -115q76 0 131 31l15 -74q-78 -47 -178 -47t-150 47q-51 47 -51 129t53 147t145 83l51 -37q-63 0 -105 -51t-42 -113z" />
    <glyph glyph-name="tilde.case" 
d="M286 1855q62 -1 143 -73t116 -72q66 0 90 117l61 -2q-10 -89 -51 -145t-103 -56t-142 73t-115 72q-61 1 -90 -114l-64 2q10 90 51 144q42 54 104 54z" />
    <glyph glyph-name="hungarumlaut.case" 
d="M594 1874h156l-248 -238h-101zM299 1874h154l-211 -238h-92z" />
    <glyph glyph-name="endash.case" horiz-adv-x="1107" 
d="M164 817h780v-98h-780v98z" />
    <glyph glyph-name="emdash.case" horiz-adv-x="1462" 
d="M164 817h1134v-98h-1134v98z" />
    <glyph glyph-name="guilsinglleft.case" horiz-adv-x="841" 
d="M680 1036l-432 -268l432 -266v-111l-569 371v14l569 369v-109z" />
    <glyph glyph-name="guilsinglright.case" horiz-adv-x="841" 
d="M162 391v111l432 266l-432 268v109l569 -369v-14z" />
    <glyph glyph-name="dollar.dnom" horiz-adv-x="632" 
d="M377 696q-162 0 -162 -112q0 -78 140 -117q57 -15 115 -35t99 -66t41 -131t-57 -143t-164 -69l-4 -164h-86l8 161q-113 6 -198 58l14 90q95 -62 197 -62q190 -1 190 130q0 82 -140 123q-58 17 -116 37t-98 66q-41 46 -41 123t54 133t163 66l8 164h86l-12 -164
q90 -6 170 -39l-17 -86q-94 37 -190 37z" />
    <glyph glyph-name="parenleft.dnom" horiz-adv-x="417" 
d="M233 376q0 -273 150 -497l-78 -4q-172 199 -172 495t172 502l78 -6q-150 -217 -150 -490z" />
    <glyph glyph-name="parenright.dnom" horiz-adv-x="417" 
d="M285 372q0 -298 -172 -497l-78 4q150 227 150 495t-150 492l78 6q172 -202 172 -500z" />
    <glyph glyph-name="plus.dnom" horiz-adv-x="739" 
d="M647 369h-239v-238h-80v238h-236v86h236v241h80v-241h239v-86z" />
    <glyph glyph-name="comma.dnom" horiz-adv-x="307" 
d="M80 41q0 72 73 72t72 -76q-1 -33 -29 -99t-59 -114l-39 8l35 145q-53 18 -53 64z" />
    <glyph glyph-name="period.dnom" horiz-adv-x="307" 
d="M80 45q0 70 72 70t73 -68q-1 -67 -73 -67t-72 65z" />
    <glyph glyph-name="zero.dnom" horiz-adv-x="735" 
d="M557 405q0 187 -43 255t-145 69q-103 0 -147 -69t-44 -257t44 -256q44 -67 146 -67t146 69q43 69 43 256zM370 819q160 1 228 -95t68 -320t-70 -320t-228 -96t-227 96t-69 321t69 320q70 94 229 94z" />
    <glyph glyph-name="one.dnom" horiz-adv-x="540" 
d="M393 811v-811h-108v508l6 162l-6 2l-174 -117l-11 88l228 168h65z" />
    <glyph glyph-name="two.dnom" horiz-adv-x="698" 
d="M346 817q139 1 208 -59t69 -172q1 -112 -95 -220q-96 -110 -297 -268v-6h400l-2 -92h-537v72q43 39 136 123q177 159 223 235q46 75 54 104q7 28 7 52q0 63 -43 101t-141 38t-207 -80l-29 86q115 86 254 86z" />
    <glyph glyph-name="three.dnom" horiz-adv-x="698" 
d="M649 242q0 -119 -75 -186q-75 -66 -220 -66t-258 65l25 86q97 -63 211 -63t164 46q49 46 49 123q-1 77 -59 111t-205 33v78q133 0 189 34t56 103q0 121 -172 121q-129 0 -223 -76l-29 80q104 86 244 86t211 -52q72 -52 72 -151q0 -141 -144 -182v-4q164 -34 164 -186z
" />
    <glyph glyph-name="four.dnom" horiz-adv-x="735" 
d="M494 266l2 281l6 166l-4 2l-209 -314l-94 -129l2 -6h297zM592 180v-180h-100v180h-412l-8 60l389 567h131v-541h104l-4 -86h-100z" />
    <glyph glyph-name="five.dnom" horiz-adv-x="735" 
d="M653 274q0 -285 -286 -284q-141 0 -244 63l20 88q101 -61 207 -61t153 45q46 45 46 143q0 154 -180 154q-113 0 -197 -39l-45 35l35 389h452l2 -92h-370l-21 -232q84 27 164 27q264 0 264 -236z" />
    <glyph glyph-name="six.dnom" horiz-adv-x="735" 
d="M553 276q0 82 -40 118t-130 36q-127 0 -188 -80q2 -146 45 -208t139 -62q174 -1 174 196zM659 274q0 -285 -280 -284q-147 0 -221 90t-74 297q0 440 346 440q88 0 186 -33l-10 -88q-68 29 -176 29q-218 0 -244 -279l7 -4q84 72 206 72q260 0 260 -240z" />
    <glyph glyph-name="seven.dnom" horiz-adv-x="735" 
d="M659 807v-90l-348 -717h-127l359 709h-459l6 98h569z" />
    <glyph glyph-name="eight.dnom" horiz-adv-x="735" 
d="M211 608q0 -78 87 -114q58 -24 116 -39q115 57 114 147q0 133 -158 133t-159 -127zM553 215q0 64 -42 94q-42 29 -69 39t-47 19t-76 22q-137 -63 -137 -168q0 -77 43 -111t146 -34q182 0 182 139zM76 221q0 135 155 203v6q-123 53 -122 182q0 205 259 205t259 -205
q0 -121 -123 -186v-4q156 -55 155 -201q1 -231 -291 -231t-292 231z" />
    <glyph glyph-name="nine.dnom" horiz-adv-x="735" 
d="M362 731q-90 0 -135 -42t-45 -116q0 -166 180 -165q126 -1 183 73q-2 137 -48 193q-45 56 -135 57zM647 442q0 -236 -80 -344t-243 -108q-98 0 -189 37l17 86q86 -35 167 -35q113 0 171 77t67 251l-4 2q-80 -80 -201 -80q-268 0 -268 243q0 113 68 181t200 67
q295 0 295 -377z" />
    <glyph glyph-name="equal.dnom" horiz-adv-x="739" 
d="M645 266h-549v76h549v-76zM645 489h-549v74h549v-74z" />
    <glyph glyph-name="cent.dnom" horiz-adv-x="632" 
d="M393 690q-106 0 -157 -62q-52 -62 -52 -217t56 -224t160 -69t173 44l9 -80q-63 -45 -168 -53l-4 -170h-86l8 172q-260 29 -260 385q0 176 67 267q68 91 215 99l11 166h86l-13 -166q80 -10 137 -37l-8 -86q-68 31 -174 31z" />
    <glyph glyph-name="minus.dnom" horiz-adv-x="739" 
d="M645 375h-541v84h541v-84z" />
    <glyph glyph-name="zero.lf" horiz-adv-x="1306" 
d="M886 154q175 113 175 614q0 500 -175 611q-86 55 -232 55t-232 -56q-178 -115 -178 -608q0 -387 95 -529t316 -143q145 0 231 56zM1190 771q0 -431 -126 -612t-413 -181t-411 180t-123 612q0 432 125 609q124 177 412 177t412 -177t124 -608z" />
    <glyph glyph-name="one.lf" horiz-adv-x="974" 
d="M680 1542v-1542h-133v1190l4 166l-4 2l-133 -101l-211 -151l-17 123l418 313h76z" />
    <glyph glyph-name="two.lf" horiz-adv-x="1308" 
d="M1135 1145q0 -270 -313 -592q-110 -113 -210 -202t-256 -220v-6h793l-4 -125h-973v94q51 49 171 159q380 348 465 461q142 185 169 269t27 150q0 131 -94 214t-281 83q-225 0 -410 -160l-39 110q193 172 465 172q233 0 361 -107t129 -300z" />
    <glyph glyph-name="three.lf" horiz-adv-x="1308" 
d="M506 874q496 0 494 289q-1 269 -367 269q-229 0 -416 -156l-39 104q186 172 461 172q227 0 354 -96t127 -276q0 -272 -289 -351v-4q166 -33 250 -121t84 -247q0 -221 -135 -347t-402 -126t-464 125l31 112q183 -121 409 -121t331 100t105 264t-124 236t-410 72v102z" />
    <glyph glyph-name="four.lf" horiz-adv-x="1329" 
d="M885 477l4 783l6 165l-4 2l-508 -811l-90 -133l2 -6h590zM1001 358v-358h-120v358h-727l-11 88l697 1090h161v-1059h213l-6 -119h-207z" />
    <glyph glyph-name="five.lf" horiz-adv-x="1247" 
d="M1128 520q0 -537 -516 -536q-254 0 -436 125l29 116q188 -125 397 -125q399 0 399 410q0 176 -92 257t-301 81t-372 -92l-56 51l62 729h817l4 -123h-719l-45 -518q162 68 348 68q481 -1 481 -443z" />
    <glyph glyph-name="six.lf" horiz-adv-x="1267" 
d="M1020 524q0 174 -89 255t-280 81q-106 0 -221 -49t-182 -129q4 -314 96 -448t297 -134q379 0 379 424zM1147 522q0 -539 -506 -538q-266 0 -395 167t-129 564q0 838 620 837q178 0 330 -61l-14 -119q-145 57 -299 58q-248 0 -376 -152t-138 -473l6 -4q178 166 425 166
t361 -109t115 -336z" />
    <glyph glyph-name="seven.lf" horiz-adv-x="1290" 
d="M1169 1536v-115l-675 -1421h-150l698 1407h-903l6 129h1024z" />
    <glyph glyph-name="eight.lf" horiz-adv-x="1280" 
d="M297 1167q0 -147 123 -217q140 -78 283 -107q5 -1 10 -3q143 59 209 136t65 185q0 281 -345 281t-345 -275zM242 394q0 -300 397 -300t397 312q0 134 -91 204q-85 67 -300 133q-59 18 -86 27q-149 -61 -233 -146q-84 -86 -84 -230zM117 412q0 139 85 242t230 161v6
q-122 49 -188 131t-66 219q0 381 463 381t463 -381q0 -254 -264 -368v-4q152 -51 236 -139t85 -248q0 -430 -520 -430q-270 0 -397 106t-127 324z" />
    <glyph glyph-name="nine.lf" horiz-adv-x="1265" 
d="M242 1096q0 -166 96 -256t291 -90q258 -1 393 157q-8 528 -412 529q-182 0 -275 -87t-93 -253zM1149 854q0 -463 -144 -667t-446 -203q-186 0 -342 67l21 115q152 -63 307 -64q245 0 359 159t124 525l-4 2q-162 -150 -413 -150t-373 120q-122 119 -121 336q0 217 124 338
q125 120 377 120t392 -176t139 -522z" />
    <glyph glyph-name="dollar.numr" horiz-adv-x="632" 
d="M215 1313q0 -47 41 -75t99 -43q57 -15 115 -35t99 -67q41 -46 41 -131q0 -86 -57 -144t-164 -68l-4 -164h-86l8 162q-115 6 -198 59l14 88q94 -59 217 -59q170 0 170 129q0 81 -140 124q-58 17 -116 37t-98 66q-41 46 -41 122q0 77 54 133t163 64l8 164h86l-12 -164
q86 -6 170 -36l-17 -86q-104 37 -189 37t-124 -34q-39 -32 -39 -79z" />
    <glyph glyph-name="parenleft.numr" horiz-adv-x="417" 
d="M233 1105q0 -273 150 -497l-78 -6q-172 199 -172 494t172 506l78 -7q-150 -217 -150 -490z" />
    <glyph glyph-name="parenright.numr" horiz-adv-x="417" 
d="M285 1098q0 -297 -172 -496l-78 6q150 226 150 494t-150 493l78 7q172 -207 172 -504z" />
    <glyph glyph-name="plus.numr" horiz-adv-x="739" 
d="M647 1096h-239v-238h-80v238h-236v86h236v241h80v-241h239v-86z" />
    <glyph glyph-name="comma.numr" horiz-adv-x="307" 
d="M80 770q0 70 73 70t72 -74q-1 -36 -29 -102t-59 -113l-39 10l35 144q-53 18 -53 65z" />
    <glyph glyph-name="period.numr" horiz-adv-x="307" 
d="M80 774q0 70 72 70t73 -68q-1 -68 -73 -68t-72 66z" />
    <glyph glyph-name="zero.numr" horiz-adv-x="735" 
d="M557 1133q0 188 -43 256q-43 67 -145 67t-147 -67q-44 -68 -44 -256t44 -257t146 -69t146 69q43 69 43 257zM370 1546q160 0 228 -94t68 -318t-70 -320t-228 -97q-158 0 -227 96q-69 97 -69 321t69 318q70 94 229 94z" />
    <glyph glyph-name="one.numr" horiz-adv-x="540" 
d="M393 1540v-813h-108v508l6 162l-6 2l-174 -117l-11 90l228 168h65z" />
    <glyph glyph-name="two.numr" horiz-adv-x="698" 
d="M345 1546q140 0 209 -60t69 -172q-1 -110 -95 -220t-297 -269v-6h400l-2 -92h-537v72q24 23 90 82t90 83l74 72q130 130 156 213q10 33 10 64q0 63 -43 101t-141 38t-207 -80l-29 86q113 88 253 88z" />
    <glyph glyph-name="three.numr" horiz-adv-x="698" 
d="M311 807q211 0 211 168q0 79 -59 111t-207 32v78q133 0 190 35t58 104q0 121 -172 121q-127 0 -226 -76l-26 78q102 88 242 88q282 0 282 -205q0 -139 -147 -180v-4q168 -34 168 -188q0 -250 -299 -250q-145 0 -254 65l26 84q100 -61 213 -61z" />
    <glyph glyph-name="four.numr" horiz-adv-x="735" 
d="M494 995l2 279l6 166l-4 2l-209 -312l-94 -129l2 -6h297zM592 907v-180h-100v180h-412l-8 62l389 565h131v-539h104l-4 -88h-100z" />
    <glyph glyph-name="five.numr" horiz-adv-x="735" 
d="M653 1004q0 -285 -286 -285q-145 0 -244 61l20 88q105 -61 209 -61t151 46q46 46 46 144q0 154 -180 154q-115 0 -197 -41l-45 37l35 387h452l2 -90h-370l-21 -232q84 27 164 27q264 1 264 -235z" />
    <glyph glyph-name="six.numr" horiz-adv-x="735" 
d="M553 1004q0 82 -41 118q-40 36 -110 37q-144 0 -207 -80q2 -147 45 -209t139 -61q174 0 174 195zM659 1004q0 -285 -280 -285q-147 0 -221 90t-74 295q0 442 346 442q92 0 186 -35l-10 -88q-68 29 -176 29q-219 0 -244 -276l7 -5q82 70 206 70q260 1 260 -237z" />
    <glyph glyph-name="seven.numr" horiz-adv-x="735" 
d="M659 1534v-88l-348 -719h-127l359 709h-459l6 98h569z" />
    <glyph glyph-name="eight.numr" horiz-adv-x="735" 
d="M211 1335q0 -78 87 -114q58 -24 116 -39q115 55 114 149q0 131 -158 131t-159 -127zM553 944q1 48 -21 70l-34 34q-18 16 -58 30q-40 12 -74 24t-49 16q-135 -63 -135 -170q0 -76 43 -110t146 -33q182 0 182 139zM76 959q0 126 153 192v6q-121 51 -120 182q0 207 259 207
t259 -207q0 -123 -125 -184v-4q158 -55 157 -201q0 -231 -288 -231q-152 0 -224 57q-71 57 -71 183z" />
    <glyph glyph-name="nine.numr" horiz-adv-x="735" 
d="M362 1460q-90 0 -135 -42t-45 -115q0 -166 180 -166q126 -1 183 73q-2 134 -48 192q-45 58 -135 58zM647 1171q0 -237 -80 -345t-243 -107q-106 0 -189 37l17 86q78 -35 179 -35q209 0 226 326l-4 2q-82 -78 -201 -78q-268 0 -268 241q0 113 68 181t200 67
q295 0 295 -375z" />
    <glyph glyph-name="equal.numr" horiz-adv-x="739" 
d="M645 993h-549v78h549v-78zM645 1217h-549v75h549v-75z" />
    <glyph glyph-name="cent.numr" horiz-adv-x="632" 
d="M393 1417q-106 0 -157 -62q-52 -62 -52 -217t56 -223q56 -67 160 -67t173 43l9 -80q-61 -45 -168 -55l-4 -170h-86l8 172q-260 29 -260 385q0 176 67 268q68 92 215 100l11 164h86l-13 -164q74 -7 137 -38l-8 -87q-68 31 -174 31z" />
    <glyph glyph-name="minus.numr" horiz-adv-x="739" 
d="M645 1102h-541v86h541v-86z" />
    <glyph glyph-name="numbersign.osf" horiz-adv-x="1216" 
d="M481 834l-53 -320h307l51 320h-305zM102 514h226l51 320h-275v98h289l58 397h100l-57 -397h307l55 397h98l-57 -397h217v-98h-231l-49 -320h280v-98h-293l-59 -416h-98l59 416h-305l-62 -416h-98l57 416h-213v98z" />
    <glyph glyph-name="dollar.osf" horiz-adv-x="997" 
d="M899 320q0 -138 -85 -233t-257 -110l-12 -290h-105l13 290q-205 10 -328 109l20 113q137 -115 347 -115q147 0 219 67q71 67 71 166t-67 155q-68 56 -163 87q-94 31 -190 66t-164 105t-67 198q0 126 95 210t274 89l18 272h103l-17 -274q137 -12 246 -66l-12 -108
q-152 67 -294 67t-218 -54t-76 -141t66 -139q67 -52 162 -80q96 -28 192 -62t163 -108q66 -76 66 -214z" />
    <glyph glyph-name="zero.osf" horiz-adv-x="1290" 
d="M1034 636q0 302 -91 421t-297 119t-299 -120t-93 -421t92 -420t299 -119t298 119t91 421zM1159 637q0 -348 -121 -503q-121 -154 -392 -154t-393 154t-122 502q0 349 121 503q121 153 393 153t393 -154t121 -501z" />
    <glyph glyph-name="one.osf" horiz-adv-x="964" 
d="M678 1280v-1280h-127v938l4 166l-4 2l-322 -217l-14 117l391 274h72z" />
    <glyph glyph-name="two.osf" horiz-adv-x="1216" 
d="M328 115h743l-6 -115h-915v90q63 52 190 152q381 302 485 436q103 135 103 247q0 113 -86 181t-280 68t-369 -138l-37 105q193 151 426 151t354 -95t121 -249t-96 -282q-53 -70 -126 -147t-224 -189q-150 -113 -283 -209v-6z" />
    <glyph glyph-name="three.osf" horiz-adv-x="1193" 
d="M1055 319q0 -252 -208 -397t-579 -153l-10 110q338 6 508 126t170 310q0 133 -90 204t-266 71q-47 0 -144 -10l-8 92q256 28 354 96t99 186q0 223 -326 224q-223 0 -391 -129l-35 102q73 63 189 103t243 40q215 0 324 -88t108 -235q0 -233 -235 -309v-5q297 -55 297 -338
z" />
    <glyph glyph-name="four.osf" horiz-adv-x="1259" 
d="M887 260l4 741l6 166l-4 2l-555 -776l-98 -127l2 -6h645zM997 150v-365l-112 -10v375h-785l-8 86l770 1054l135 -10v-1020h201l-6 -110h-195z" />
    <glyph glyph-name="five.osf" horiz-adv-x="1165" 
d="M1049 354q0 -262 -204 -420t-587 -165l-10 114q330 8 504 132t174 325q0 287 -367 287q-205 0 -360 -90l-54 51l60 686h778l6 -127h-688l-39 -475q154 72 330 71q225 1 341 -101t116 -288z" />
    <glyph glyph-name="six.osf" horiz-adv-x="1208" 
d="M971 508q0 164 -85 242t-263 77q-100 0 -208 -46t-171 -122q4 -303 95 -430t275 -127q357 0 357 406zM1092 506q0 -524 -480 -524q-244 0 -370 162t-125 526q0 408 216 622t572 226l21 -113q-316 -10 -494 -173t-196 -452l6 -4q168 158 400 158t341 -104t109 -324z" />
    <glyph glyph-name="seven.osf" horiz-adv-x="1198" 
d="M1081 1274v-109l-653 -1376h-139l653 1356h-833l10 129h962z" />
    <glyph glyph-name="eight.osf" horiz-adv-x="1224" 
d="M940 958q0 115 -78 172q-78 58 -250 58t-246 -56t-75 -154q0 -98 69 -162q55 -49 240 -92q78 -19 92 -24q248 88 248 258zM983 340q0 92 -57 143t-121 72q-63 21 -94 31t-96 25t-93 24q-285 -96 -284 -289q0 -131 87 -193q87 -63 275 -63q383 -2 383 250zM117 344
q0 115 74 201q75 86 202 133v6q-221 82 -221 287q0 321 439 321t440 -321q0 -211 -228 -303v-4q133 -41 208 -114t75 -204q0 -364 -494 -364t-495 362z" />
    <glyph glyph-name="nine.osf" horiz-adv-x="1185" 
d="M242 846q0 -158 87 -242t259 -84q258 0 354 182q-4 244 -90 357t-264 113t-262 -85q-84 -83 -84 -241zM1069 666q0 -434 -212 -658t-566 -235l-10 112q289 13 465 187t198 489l-4 2q-131 -158 -379 -157q-213 0 -329 112t-116 324q0 213 117 332t342 118q494 1 494 -626z
" />
    <glyph glyph-name="cent.osf" horiz-adv-x="1028" 
d="M639 1110q-211 0 -302 -116t-91 -388t95 -396q95 -122 277 -122t295 84l13 -109q-109 -82 -285 -88l-10 -288h-105l13 290q-215 17 -319 173t-103 460q0 304 109 455q110 150 345 162l17 272h102l-16 -272q126 -13 241 -66l-10 -114q-131 63 -266 63z" />
    <glyph glyph-name="sterling.osf" horiz-adv-x="1097" 
d="M166 971q0 166 108 269t330 103t365 -71l-21 -107q-135 70 -313 70t-263 -74t-85 -196q0 -88 43 -248h493v-99h-471q23 -113 23 -202q0 -215 -139 -316l4 -6q156 29 370 29t432 -25l-8 -108q-260 26 -462 26t-490 -24l-2 104q88 35 133 119q45 83 45 187t-22 216h-115
l-4 99h94q-45 168 -45 254z" />
    <glyph glyph-name="currency.osf" horiz-adv-x="1216" 
d="M365 676q-1 -98 69 -168t172 -70t172 69t70 169t-70 169t-171 69t-172 -70q-70 -70 -70 -168zM270 677q0 110 66 202l-125 129l65 73l130 -133q86 68 198 68t205 -70l133 135l66 -73l-131 -134q63 -94 63 -197t-59 -194l127 -129l-68 -73l-127 131q-90 -74 -206 -74
t-208 70l-125 -127l-65 71l123 127q-62 88 -62 198z" />
    <glyph glyph-name="yen.osf" horiz-adv-x="1216" 
d="M283 582h227l4 6l-86 135l-354 606h141l315 -573l76 -146h6l74 146l313 573h138l-428 -747h221v-78h-256v-121h256v-78h-256v-305h-127v305h-264v78h264v121h-264v78z" />
    <glyph glyph-name="franc.osf" horiz-adv-x="1216" 
d="M76 307h184l-2 1022h862l2 -117h-741v-469h582v-112h-582v-324h192v-90h-192v-217h-121v217h-184v90z" />
    <glyph glyph-name="lira.osf" horiz-adv-x="1216" 
d="M186 963q0 170 116 276q116 107 346 107t390 -78l-20 -107q-143 72 -336 72t-283 -76t-90 -203q0 -70 21 -155h588v-78h-568q18 -72 29 -123h539v-78h-525q6 -53 6 -106q0 -217 -143 -314l2 -4q172 29 400 29t456 -25l-8 -110q-281 26 -508 26t-498 -24l-2 104
q90 35 138 119q47 84 47 191q0 45 -9 114h-127l-2 78h117q-8 49 -33 123h-84l-4 78h68q-23 80 -23 164z" />
    <glyph glyph-name="peseta.osf" horiz-adv-x="1216" 
d="M1143 219q0 -236 -156 -235q-68 0 -110 39l4 81q39 -39 98 -38q92 0 92 151q0 104 -71 159q-30 24 -58 50q-68 61 -69 171q-1 111 41 169t104 59q62 0 108 -32l-6 -80q-51 29 -88 28q-86 0 -86 -127q0 -93 70 -144q30 -22 58 -48q70 -62 69 -203zM825 739h-106v-581
q0 -94 61 -95q16 0 33 13l4 -76q-18 -14 -57 -14q-117 0 -117 170v583h-53v74h55l14 193l60 10v-203h106v-74zM465 949q0 173 -36 229t-130 57h-121v-573h121q92 0 129 57t37 230zM547 954q0 -219 -54 -300t-194 -81h-121v-573h-82v1329h203q137 0 193 -78t55 -297z" />
    <glyph glyph-name="Euro.osf" horiz-adv-x="1216" 
d="M766 1233q-200 0 -310 -93t-139 -292h684l-30 -86h-662q-2 -27 -2 -85t2 -85h609l-33 -80h-568q29 -222 144 -322t315 -100t342 103l12 -113q-160 -109 -397 -109q-489 0 -553 541h-104v80h98q-2 29 -2 86t2 84h-98v86h106q66 504 574 504q219 0 377 -82l-39 -105
q-129 68 -328 68z" />
    <glyph glyph-name="exclam.sc" horiz-adv-x="604" 
d="M303 143q86 0 86 -81q0 -80 -86 -80t-86 80t86 81zM344 342h-90l-21 987h129z" />
    <glyph glyph-name="ampersand.sc" horiz-adv-x="1327" 
d="M420 1052q0 -99 92 -247q174 119 223 170q61 70 62 139q0 139 -187 139q-86 0 -138 -51t-52 -150zM545 92q176 0 325 166q-236 197 -387 399q-197 -160 -196 -329q-1 -112 69 -174t189 -62zM526 -23q-186 -1 -275 97t-89 238t70 241q71 100 192 190q-115 179 -115 313
t76 214t223 80q146 0 228 -62t82 -163q0 -100 -70 -178t-160 -142t-119 -82q150 -193 371 -377q106 160 133 328h103q-20 -197 -152 -395q156 -117 279 -189l-43 -108q-162 94 -304 206q-182 -211 -430 -211z" />
    <glyph glyph-name="question.sc" horiz-adv-x="1021" 
d="M496 143q86 0 86 -81q0 -80 -86 -80t-86 80t86 81zM522 1352q190 0 286 -81t95 -229q0 -148 -90 -257q-90 -108 -266 -197l-8 -246h-93l-10 301q178 96 259 180t81 199q0 215 -270 215q-201 0 -356 -139l-50 96q164 158 422 158z" />
    <glyph glyph-name="grave.sc" 
d="M524 1438h-98l-233 274h155z" />
    <glyph glyph-name="a.sc" horiz-adv-x="1335" 
d="M664 1231l-58 -158l-237 -614h592l-236 614l-55 158h-6zM1137 0l-136 348h-675l-136 -348h-139l541 1329h149l543 -1329h-147z" />
    <glyph glyph-name="b.sc" horiz-adv-x="1269" 
d="M975 979q0 125 -67 181t-208 57h-372v-476h393q254 0 254 238zM1030 383q0 262 -301 262h-401v-534h409q145 1 219 63t74 209zM1155 375q0 -183 -99 -279t-321 -96h-528v1329h498q391 0 391 -328q0 -240 -207 -296v-5q266 -49 266 -325z" />
    <glyph glyph-name="c.sc" horiz-adv-x="1153" 
d="M713 1233q-250 0 -362 -127q-111 -127 -111 -438t113 -443q114 -131 366 -131q158 0 309 72l19 -109q-156 -80 -342 -80q-309 0 -453 169q-143 168 -143 522t145 519t455 165q186 0 333 -70l-20 -115q-135 66 -309 66z" />
    <glyph glyph-name="d.sc" horiz-adv-x="1376" 
d="M676 119q242 0 352 121t109 425q0 304 -108 424t-355 119h-342v-1089h344zM676 1329q312 -1 452 -157t140 -505t-144 -508t-446 -159h-471v1329h469z" />
    <glyph glyph-name="e.sc" horiz-adv-x="1185" 
d="M332 117h753l-4 -117h-874v1329h842l4 -119h-721v-460h624v-107h-624v-526z" />
    <glyph glyph-name="f.sc" horiz-adv-x="1136" 
d="M334 1208v-471h637v-114h-637v-623h-127v1329h840l4 -121h-717z" />
    <glyph glyph-name="g.sc" horiz-adv-x="1277" 
d="M1135 694v-639q-162 -78 -406 -78q-324 0 -472 162t-148 525q-1 364 149 526t473 162q215 0 369 -72l-17 -113q-170 68 -346 68q-262 0 -380 -128q-117 -128 -117 -441t111 -443q112 -129 374 -129q170 0 293 53v547h117z" />
    <glyph glyph-name="h.sc" horiz-adv-x="1431" 
d="M1225 0h-129v633h-762v-633h-127v1329h127v-575h762v575h129v-1329z" />
    <glyph glyph-name="i.sc" horiz-adv-x="602" 
d="M236 0v1329h131v-1329h-131z" />
    <glyph glyph-name="j.sc" horiz-adv-x="950" 
d="M768 1329v-917q0 -222 -103 -328t-287 -106t-288 83l14 117q109 -86 250 -86q285 0 285 318v919h129z" />
    <glyph glyph-name="k.sc" horiz-adv-x="1312" 
d="M332 639v-639h-125v1329h125v-577h243l486 577h158l-529 -629l559 -700h-170l-512 639h-235z" />
    <glyph glyph-name="l.sc" horiz-adv-x="1093" 
d="M332 121h704l-4 -121h-825v1329h125v-1208z" />
    <glyph glyph-name="m.sc" horiz-adv-x="1718" 
d="M207 1329h147l441 -1012l63 -151h6l62 151l444 1012h143v-1329h-116v967l4 166l-6 2l-64 -154l-428 -981h-88l-430 971l-63 153l-5 -2l2 -166v-956h-112v1329z" />
    <glyph glyph-name="n.sc" horiz-adv-x="1441" 
d="M1235 0h-100l-719 1016l-92 137l-5 -2l3 -166v-985h-115v1329h123l790 -1122l4 2l-4 164v956h115v-1329z" />
    <glyph glyph-name="o.sc" horiz-adv-x="1351" 
d="M240 665q0 -321 99 -447t338 -126t337 126t98 448q0 320 -97 444t-338 123q-241 0 -339 -124t-98 -444zM1243 664q0 -367 -129 -527t-436 -160t-438 161t-131 527q0 365 131 525t438 160t436 -160t129 -526z" />
    <glyph glyph-name="p.sc" horiz-adv-x="1226" 
d="M664 637q172 1 250 65t77 223q0 159 -78 225t-249 67h-330v-580h330zM1122 931q0 -206 -108 -304t-350 -99h-330v-528h-127v1329h457q240 0 349 -96t109 -302z" />
    <glyph glyph-name="q.sc" horiz-adv-x="1392" 
d="M260 665q0 -321 99 -447t338 -126t337 126t99 448q1 320 -97 444t-339 123q-241 0 -339 -124t-98 -444zM698 1350q306 0 436 -160t130 -508t-102 -507t-341 -185l-2 -4l336 -230l-151 -28l-342 249q-287 8 -410 170t-123 523q0 360 131 520t438 160z" />
    <glyph glyph-name="r.sc" horiz-adv-x="1261" 
d="M954 959q0 139 -66 199q-67 60 -218 61h-336v-527h328q156 0 224 64t68 203zM1085 965q0 -313 -294 -353l387 -612h-160l-354 588h-330v-588h-127v1329h465q413 1 413 -364z" />
    <glyph glyph-name="s.sc" horiz-adv-x="1087" 
d="M985 371q0 -181 -120 -287q-119 -106 -349 -106t-397 104l24 115q173 -107 359 -107t273 73t87 203t-144 198q-65 30 -203 71t-220 88q-162 92 -162 260t112 267q111 100 329 100t364 -76l-20 -109q-182 70 -342 70t-240 -68t-80 -157t54 -141q54 -53 135 -77
q212 -64 351 -122q81 -36 135 -112t54 -187z" />
    <glyph glyph-name="t.sc" horiz-adv-x="1089" 
d="M608 1210v-1210h-129v1210h-444l2 119h1014l4 -119h-447z" />
    <glyph glyph-name="u.sc" horiz-adv-x="1415" 
d="M1233 1329v-829q0 -522 -525 -522t-526 522v829h127v-827q-1 -209 99 -307q100 -99 300 -99t298 100t98 306v827h129z" />
    <glyph glyph-name="v.sc" horiz-adv-x="1310" 
d="M1110 1329h139l-518 -1329h-147l-521 1329h146l448 -1218h7l53 155z" />
    <glyph glyph-name="w.sc" horiz-adv-x="1906" 
d="M883 1329h145l285 -1050l41 -160h6l35 162l260 1048h129l-348 -1329h-160l-281 1047l-39 161h-6l-319 -1208h-160l-348 1329h135l258 -1053l37 -161h6l39 159z" />
    <glyph glyph-name="x.sc" horiz-adv-x="1327" 
d="M1194 1329l-438 -637l473 -692h-156l-414 614l-403 -614h-158l461 690l-442 639h164l381 -563l378 563h154z" />
    <glyph glyph-name="y.sc" horiz-adv-x="1261" 
d="M700 0h-135v467l-502 862h152l338 -608l78 -146h6l76 146l338 608h147l-498 -862v-467z" />
    <glyph glyph-name="z.sc" horiz-adv-x="1187" 
d="M113 0v86l698 989l96 129l-2 4h-768l8 121h918v-98l-692 -979l-97 -127l2 -6h791l-4 -119h-950z" />
    <glyph glyph-name="exclamdown.sc" horiz-adv-x="620" 
d="M215 1272q0 88 94 88t94 -88t-94 -88t-94 88zM262 950h100l17 -1145h-135z" />
    <glyph glyph-name="dieresis.sc" 
d="M633 1591q0 -72 -70 -71q-69 0 -69 72t70 71q70 0 69 -72zM324 1591q0 -72 -70 -71q-68 0 -68 72t69 71q69 0 69 -72z" />
    <glyph glyph-name="macron.sc" 
d="M678 1505h-537v78l537 2v-80z" />
    <glyph glyph-name="acute.sc" 
d="M518 1712h166l-270 -274h-109z" />
    <glyph glyph-name="cedilla.sc" 
d="M281 -393l120 393h88l-81 -393h-127z" />
    <glyph glyph-name="questiondown.sc" horiz-adv-x="1095" 
d="M463 1272q0 90 94 90t94 -90t-94 -90t-94 90zM119 143q0 170 96 293t287 230l8 282h100l8 -334q-196 -123 -284 -223t-88 -231q0 -248 297 -248q217 0 389 156l49 -99q-174 -178 -451 -178q-205 0 -308 91t-103 261z" />
    <glyph glyph-name="germandbls.sc" horiz-adv-x="1433" 
d="M1130 809l-419 420l-105 -105l105 -104l-209 -211l104 -104l211 210l105 -106l-211 -209l106 -104zM1153 809l-442 -440l-441 440l441 442z" />
    <glyph glyph-name="agrave.sc" horiz-adv-x="1335" 
d="M780 1438h-98l-233 274h155zM664 1231l-58 -158l-237 -614h592l-236 614l-55 158h-6zM1137 0l-136 348h-675l-136 -348h-139l541 1329h149l543 -1329h-147z" />
    <glyph glyph-name="aacute.sc" horiz-adv-x="1335" 
d="M774 1712h166l-270 -274h-109zM664 1231l-58 -158l-237 -614h592l-236 614l-55 158h-6zM1137 0l-136 348h-675l-136 -348h-139l541 1329h149l543 -1329h-147z" />
    <glyph glyph-name="acircumflex.sc" horiz-adv-x="1335" 
d="M608 1712h115l219 -274h-108l-168 221l-166 -221h-107zM664 1231l-58 -158l-237 -614h592l-236 614l-55 158h-6zM1137 0l-136 348h-675l-136 -348h-139l541 1329h149l543 -1329h-147z" />
    <glyph glyph-name="atilde.sc" horiz-adv-x="1335" 
d="M544 1692q62 0 138 -60t115 -61q66 0 90 92l65 -2q-10 -72 -52 -120t-102 -48t-138 60t-113 61q-63 0 -92 -94h-66q10 76 52 124q41 48 103 48zM664 1231l-58 -158l-237 -614h592l-236 614l-55 158h-6zM1137 0l-136 348h-675l-136 -348h-139l541 1329h149l543 -1329h-147
z" />
    <glyph glyph-name="adieresis.sc" horiz-adv-x="1335" 
d="M891 1591q0 -72 -70 -71q-69 0 -69 72t70 71q70 0 69 -72zM582 1591q0 -72 -70 -71q-68 0 -68 72t69 71q69 0 69 -72zM664 1231l-58 -158l-237 -614h592l-236 614l-55 158h-6zM1137 0l-136 348h-675l-136 -348h-139l541 1329h149l543 -1329h-147z" />
    <glyph glyph-name="aring.sc" horiz-adv-x="1335" 
d="M557 1465q0 -43 30 -69t82 -26t83 26q30 26 30 70t-30 70q-31 27 -83 27t-82 -27t-30 -71zM664 1231l-58 -158l-237 -614h592l-236 614l-55 158h-6zM483 1468q0 70 49 113q48 43 134 43t136 -44t50 -112q0 -115 -107 -149l539 -1319h-147l-136 348h-675l-136 -348h-139
l537 1319q-105 36 -105 149z" />
    <glyph glyph-name="ae.sc" horiz-adv-x="1929" 
d="M913 1231l-79 -146l-285 -485l-84 -135l2 -6h545l-76 606l-16 164zM1700 750v-107h-576l66 -526h637l-4 -117h-752l-45 348h-623l-202 -348h-158l803 1329h958l6 -119h-757l57 -460h590z" />
    <glyph glyph-name="ccedilla.sc" horiz-adv-x="1153" 
d="M109 676q0 346 145 511t455 165q186 0 333 -70l-20 -115q-135 66 -309 66q-250 0 -362 -127q-111 -127 -111 -438t113 -443q114 -131 366 -131q158 0 309 72l19 -109q-133 -70 -304 -77l-77 -373h-127l114 373q-283 12 -413 181t-131 515z" />
    <glyph glyph-name="egrave.sc" horiz-adv-x="1185" 
d="M764 1438h-98l-234 274h156zM332 117h753l-4 -117h-874v1329h842l4 -119h-721v-460h624v-107h-624v-526z" />
    <glyph glyph-name="eacute.sc" horiz-adv-x="1185" 
d="M758 1712h166l-271 -274h-108zM332 117h753l-4 -117h-874v1329h842l4 -119h-721v-460h624v-107h-624v-526z" />
    <glyph glyph-name="ecircumflex.sc" horiz-adv-x="1185" 
d="M592 1712h115l219 -274h-109l-168 221l-166 -221h-106zM332 117h753l-4 -117h-874v1329h842l4 -119h-721v-460h624v-107h-624v-526z" />
    <glyph glyph-name="edieresis.sc" horiz-adv-x="1185" 
d="M874 1591q0 -72 -69 -71q-70 0 -70 72q-1 72 69 71q70 0 70 -72zM565 1591q0 -72 -69 -71q-68 0 -68 72t68 71q68 0 69 -72zM332 117h753l-4 -117h-874v1329h842l4 -119h-721v-460h624v-107h-624v-526z" />
    <glyph glyph-name="igrave.sc" horiz-adv-x="602" 
d="M410 1438h-99l-233 274h155zM236 0v1329h131v-1329h-131z" />
    <glyph glyph-name="iacute.sc" horiz-adv-x="602" 
d="M403 1712h166l-270 -274h-109zM236 0v1329h131v-1329h-131z" />
    <glyph glyph-name="icircumflex.sc" horiz-adv-x="602" 
d="M238 1712h114l219 -274h-108l-168 221l-166 -221h-106zM236 0v1329h131v-1329h-131z" />
    <glyph glyph-name="idieresis.sc" horiz-adv-x="602" 
d="M522 1591q0 -72 -69 -71q-70 0 -70 72q-1 72 69 71q70 0 70 -72zM213 1591q0 -72 -70 -71q-67 0 -67 72t68 71q68 0 69 -72zM236 0v1329h131v-1329h-131z" />
    <glyph glyph-name="eth.sc" horiz-adv-x="1388" 
d="M690 119q242 0 352 121t109 425q0 304 -108 424t-355 119h-342v-460h303v-97h-303v-532h344zM690 1329q312 -1 452 -157t140 -505t-143 -508t-447 -159h-471v651h-182v97h182v581h469z" />
    <glyph glyph-name="ntilde.sc" horiz-adv-x="1441" 
d="M596 1692q61 0 137 -60t115 -61q66 0 90 92l66 -2q-10 -72 -52 -120t-103 -48q-60 0 -137 60t-114 61q-63 0 -92 -94h-66q10 76 52 124t104 48zM1235 0h-100l-719 1016l-92 137l-5 -2l3 -166v-985h-115v1329h123l790 -1122l4 2l-4 164v956h115v-1329z" />
    <glyph glyph-name="ograve.sc" horiz-adv-x="1351" 
d="M791 1438h-99l-233 274h155zM240 665q0 -321 99 -447t338 -126t337 126t98 448q0 320 -97 444t-338 123q-241 0 -339 -124t-98 -444zM1243 664q0 -367 -129 -527t-436 -160t-438 161t-131 527q0 365 131 525t438 160t436 -160t129 -526z" />
    <glyph glyph-name="oacute.sc" horiz-adv-x="1351" 
d="M784 1712h166l-270 -274h-109zM240 665q0 -321 99 -447t338 -126t337 126t98 448q0 320 -97 444t-338 123q-241 0 -339 -124t-98 -444zM1243 664q0 -367 -129 -527t-436 -160t-438 161t-131 527q0 365 131 525t438 160t436 -160t129 -526z" />
    <glyph glyph-name="ocircumflex.sc" horiz-adv-x="1351" 
d="M618 1712h115l219 -274h-108l-168 221l-166 -221h-107zM240 665q0 -321 99 -447t338 -126t337 126t98 448q0 320 -97 444t-338 123q-241 0 -339 -124t-98 -444zM1243 664q0 -367 -129 -527t-436 -160t-438 161t-131 527q0 365 131 525t438 160t436 -160t129 -526z" />
    <glyph glyph-name="otilde.sc" horiz-adv-x="1351" 
d="M555 1692q61 0 137 -60t115 -61q66 0 90 92l66 -2q-11 -72 -53 -120t-102 -48t-137 60t-114 61q-63 0 -92 -94h-66q11 76 53 124t103 48zM240 665q0 -321 99 -447t338 -126t337 126t98 448q0 320 -97 444t-338 123q-241 0 -339 -124t-98 -444zM1243 664q0 -367 -129 -527
t-436 -160t-438 161t-131 527q0 365 131 525t438 160t436 -160t129 -526z" />
    <glyph glyph-name="odieresis.sc" horiz-adv-x="1351" 
d="M901 1591q0 -72 -70 -71q-69 0 -69 72t70 71q70 0 69 -72zM592 1591q0 -72 -70 -71q-68 0 -68 72t70 71q68 0 68 -72zM240 665q0 -321 99 -447t338 -126t337 126t98 448q0 320 -97 444t-338 123q-241 0 -339 -124t-98 -444zM1243 664q0 -367 -129 -527t-436 -160
t-438 161t-131 527q0 365 131 525t438 160t436 -160t129 -526z" />
    <glyph glyph-name="oslash.sc" horiz-adv-x="1351" 
d="M240 664q0 -254 63 -388l701 846q-96 111 -331 111q-235 1 -334 -123t-99 -446zM677 92q239 0 337 126t98 420t-68 421l-702 -844q96 -123 335 -123zM109 686q0 346 131 504q130 160 420 160t423 -127l121 141l62 -61l-125 -150q104 -162 104 -509t-130 -507t-424 -160
t-427 134l-106 -140l-62 62l113 147q-100 160 -100 506z" />
    <glyph glyph-name="ugrave.sc" horiz-adv-x="1415" 
d="M821 1438h-98l-234 274h156zM1233 1329v-829q0 -522 -525 -522t-526 522v829h127v-827q-1 -209 99 -307q100 -99 300 -99t298 100t98 306v827h129z" />
    <glyph glyph-name="uacute.sc" horiz-adv-x="1415" 
d="M815 1712h166l-270 -274h-109zM1233 1329v-829q0 -522 -525 -522t-526 522v829h127v-827q-1 -209 99 -307q100 -99 300 -99t298 100t98 306v827h129z" />
    <glyph glyph-name="ucircumflex.sc" horiz-adv-x="1415" 
d="M651 1712h115l219 -274h-108l-168 221l-166 -221h-107zM1233 1329v-829q0 -522 -525 -522t-526 522v829h127v-827q-1 -209 99 -307q100 -99 300 -99t298 100t98 306v827h129z" />
    <glyph glyph-name="udieresis.sc" horiz-adv-x="1415" 
d="M934 1591q0 -72 -70 -71q-70 0 -70 72t70 71q70 0 70 -72zM625 1591q0 -72 -70 -71q-68 0 -68 72t69 71q69 0 69 -72zM1233 1329v-829q0 -522 -525 -522t-526 522v829h127v-827q-1 -209 99 -307q100 -99 300 -99t298 100t98 306v827h129z" />
    <glyph glyph-name="yacute.sc" horiz-adv-x="1261" 
d="M741 1712h166l-270 -274h-109zM700 0h-135v467l-502 862h152l338 -608l78 -146h6l76 146l338 608h147l-498 -862v-467z" />
    <glyph glyph-name="thorn.sc" horiz-adv-x="1245" 
d="M616 391q201 -1 288 65t87 225t-88 225t-287 67h-282v-582h282zM616 1083q270 0 388 -95t118 -302t-118 -305t-388 -98h-282v-283h-127v1329h127v-246h282z" />
    <glyph glyph-name="ydieresis.sc" horiz-adv-x="1261" 
d="M858 1591q0 -72 -70 -71q-70 0 -70 72t70 71q70 0 70 -72zM549 1591q0 -72 -70 -71q-67 0 -67 72t68 71q68 0 69 -72zM700 0h-135v467l-502 862h152l338 -608l78 -146h6l76 146l338 608h147l-498 -862v-467z" />
    <glyph glyph-name="dotlessi.sc" horiz-adv-x="602" 
d="M236 0v1329h131v-1329h-131z" />
    <glyph glyph-name="ij.sc" horiz-adv-x="1538" 
d="M236 0v1329h131v-1329h-131zM1356 1329v-917q0 -222 -104 -328t-287 -106q-184 0 -287 83l14 117q109 -86 250 -86q285 0 285 318v919h129z" />
    <glyph glyph-name="lslash.sc" horiz-adv-x="1122" 
d="M360 121h705l-4 -121h-825v590l-150 -74l-8 113l158 78v622h124v-567l433 213l10 -113l-443 -217v-524z" />
    <glyph glyph-name="oe.sc" horiz-adv-x="2074" 
d="M240 665q0 -319 99 -445t336 -126t333 126t96 446t-95 444t-334 123q-239 0 -337 -124t-98 -444zM1114 0v217l-6 2q-106 -242 -453 -242q-291 0 -419 161t-127 526q0 366 128 526t418 160q350 0 453 -228h6v207h823l5 -119h-711v-460h612v-107h-612v-526h743l-4 -117
h-856z" />
    <glyph glyph-name="scaron.sc" horiz-adv-x="1087" 
d="M625 1438h-113l-219 274h110l164 -219l166 219h111zM985 371q0 -181 -120 -287q-119 -106 -349 -106t-397 104l24 115q173 -107 359 -107t273 73t87 203t-144 198q-65 30 -203 71t-220 88q-162 92 -162 260t112 267q111 100 329 100t364 -76l-20 -109q-182 70 -342 70
t-240 -68t-80 -157t54 -141q54 -53 135 -77q212 -64 351 -122q81 -36 135 -112t54 -187z" />
    <glyph glyph-name="zcaron.sc" horiz-adv-x="1187" 
d="M649 1438h-112l-220 274h111l164 -219l166 219h110zM113 0v86l698 989l96 129l-2 4h-768l8 121h918v-98l-692 -979l-97 -127l2 -6h791l-4 -119h-950z" />
    <glyph glyph-name="circumflex.sc" 
d="M346 1712h115l219 -274h-109l-168 221l-165 -221h-107z" />
    <glyph glyph-name="caron.sc" 
d="M463 1438h-113l-219 274h111l164 -219l165 219h111z" />
    <glyph glyph-name="breve.sc" 
d="M578 1712h94q0 -133 -67 -208t-199 -74q-270 0 -271 282h92q2 -104 49 -156q48 -52 128 -53t127 53t47 156z" />
    <glyph glyph-name="dotaccent.sc" 
d="M494 1581q0 -80 -90 -80t-91 80q1 80 91 80t90 -80z" />
    <glyph glyph-name="ring.sc" 
d="M516 1525q0 45 -31 71t-83 26t-82 -26t-29 -71q0 -44 30 -70q29 -25 81 -25t83 26t31 69zM217 1525q0 73 49 115t134 43q86 0 136 -44q50 -45 50 -115t-49 -113t-135 -43t-136 42q-49 42 -49 115z" />
    <glyph glyph-name="ogonek.sc" 
d="M385 -164q0 -115 131 -115q76 0 131 31l15 -74q-78 -47 -178 -47t-150 46q-51 46 -51 128t55 147t147 83l47 -35q-63 0 -105 -51t-42 -113z" />
    <glyph glyph-name="tilde.sc" 
d="M282 1692q62 0 138 -60t115 -61q66 0 90 92l65 -2q-10 -72 -52 -120t-102 -48t-138 60q-77 60 -113 61q-63 0 -92 -94h-66q10 76 52 124q41 48 103 48z" />
    <glyph glyph-name="hungarumlaut.sc" 
d="M692 1712h142l-240 -274h-96zM410 1712h141l-234 -274h-88z" />
    <glyph glyph-name="fi.sc" horiz-adv-x="1433" 
d="M1130 809l-419 420l-105 -105l105 -104l-209 -211l104 -104l211 210l105 -106l-211 -209l106 -104zM1153 809l-442 -440l-441 440l441 442z" />
    <glyph glyph-name="fl.sc" horiz-adv-x="1433" 
d="M1130 809l-419 420l-105 -105l105 -104l-209 -211l104 -104l211 210l105 -106l-211 -209l106 -104zM1153 809l-442 -440l-441 440l441 442z" />
    <glyph glyph-name="dollar.subs" horiz-adv-x="632" 
d="M215 291q0 -47 41 -75t99 -43q57 -15 115 -35t99 -67q41 -46 41 -130q0 -83 -57 -143t-164 -70l-4 -164h-86l8 164q-111 6 -198 55l14 90q94 -59 217 -59q170 0 170 129q0 81 -140 124q-58 17 -116 37t-98 66q-41 46 -41 122q0 77 54 133t163 64l8 164h86l-12 -164
q90 -6 170 -38l-17 -84q-104 37 -189 37t-124 -34q-39 -32 -39 -79z" />
    <glyph glyph-name="comma.subs" horiz-adv-x="307" 
d="M80 -254q0 72 73 72t72 -76q-1 -34 -29 -100t-59 -113l-39 10l35 144q-53 18 -53 63z" />
    <glyph glyph-name="period.subs" horiz-adv-x="307" 
d="M80 -248q0 70 72 70t73 -68q-1 -68 -73 -68t-72 66z" />
    <glyph glyph-name="cent.subs" horiz-adv-x="632" 
d="M396 -174q102 0 177 41l9 -78q-63 -47 -168 -53l-4 -172h-86l8 174q-260 29 -260 383q0 176 67 267q68 91 215 99l8 166h89l-13 -166q80 -9 137 -36l-8 -86q-68 31 -174 31t-157 -63q-52 -62 -52 -217q0 -154 54 -222q56 -68 158 -68z" />
    <glyph glyph-name="dollar.sups" horiz-adv-x="632" 
d="M215 1614q0 -47 41 -75t99 -43q57 -16 115 -36t99 -66t41 -131t-57 -143t-164 -69l-4 -164h-86l8 162q-113 6 -198 57l14 90q95 -61 197 -61q190 0 190 131q0 81 -140 124q-58 17 -116 37q-58 19 -98 65q-41 46 -41 123t54 133t163 64l8 164h86l-12 -164q90 -6 170 -38
l-17 -84q-104 36 -189 36t-124 -32t-39 -80z" />
    <glyph glyph-name="comma.sups" horiz-adv-x="307" 
d="M80 1069q0 72 73 72t72 -76q-1 -33 -29 -99t-59 -114l-39 10l35 144q-53 18 -53 63z" />
    <glyph glyph-name="period.sups" horiz-adv-x="307" 
d="M80 1075q0 70 72 70t73 -68q-1 -67 -73 -67t-72 65z" />
    <glyph glyph-name="cent.sups" horiz-adv-x="632" 
d="M396 1149q102 0 177 41l9 -78q-61 -45 -168 -55l-4 -170h-86l8 172q-260 29 -260 385q0 176 67 267q68 91 215 99l8 166h89l-13 -166q80 -9 137 -36l-8 -86q-68 30 -174 30t-157 -62q-52 -62 -52 -217t54 -223q56 -68 158 -67z" />
    <glyph glyph-name="numbersign.tf" horiz-adv-x="1339" 
d="M565 967l-59 -377h270l55 377h-266zM145 590h263l57 377h-318v104h332l64 465h98l-63 -465h266l65 465h97l-64 -465h254v-104h-266l-58 -377h322v-105h-334l-67 -485h-97l66 485h-268l-66 -485h-98l63 485h-248v105z" />
    <glyph glyph-name="dollar.tf" horiz-adv-x="1339" 
d="M303 1174q0 -116 104 -182q73 -46 234 -103l43 547q-190 -2 -286 -74t-95 -188zM1057 391q0 131 -98 202t-250 124l-52 -627q400 4 400 301zM1163 408q0 -224 -126 -328t-390 -109l-12 -145l-78 6l10 141q-231 16 -383 109l17 131q172 -102 377 -121l51 653
q-107 37 -167 65t-134 77q-144 95 -144 280t133 287t377 107l11 135l86 -6l-13 -131q186 -14 309 -76l-14 -121q-147 57 -305 70l-47 -570q100 -36 165 -66q184 -86 241 -211q36 -77 36 -177z" />
    <glyph glyph-name="cent.tf" horiz-adv-x="1339" 
d="M758 1110q-211 0 -302 -116t-91 -388t95 -396q94 -122 276 -122t296 84l12 -109q-104 -78 -276 -88l-12 -288h-103l13 288q-219 18 -325 173q-105 155 -105 463t111 458q112 150 351 160l17 270h102l-16 -274q127 -13 233 -64l-10 -114q-131 63 -266 63z" />
    <glyph glyph-name="sterling.tf" horiz-adv-x="1339" 
d="M240 1126q0 193 122 311q123 118 398 117q217 0 385 -84l-21 -118q-152 80 -356 80t-300 -85q-97 -85 -97 -229q0 -98 51 -291h559v-110h-535q27 -133 27 -238q0 -252 -164 -366l2 -4q371 64 920 4q-2 -5 -5 -63t-3 -62q-303 30 -539 30t-539 -28l-6 119q100 41 155 139
q54 98 54 219t-26 250h-132l-6 110h111q-55 190 -55 299z" />
    <glyph glyph-name="currency.tf" horiz-adv-x="1339" 
d="M666 989q-106 0 -181 -74t-75 -178t74 -177t182 -73t182 73t74 177t-75 178t-181 74zM319 736q0 118 68 208l-131 135l68 76l135 -139q92 70 208 70t207 -72l142 141l67 -76l-137 -139q66 -92 66 -204t-62 -201l131 -134l-67 -77l-135 135q-92 -72 -212 -72t-212 72
l-131 -135l-70 75l129 131q-64 88 -64 206z" />
    <glyph glyph-name="yen.tf" horiz-adv-x="1339" 
d="M326 666h241l-473 870h154l424 -860h6l67 149l353 711h147l-463 -870h236v-93h-273v-112h273v-90h-273v-371h-139v371h-280v90h280v112h-280v93z" />
    <glyph glyph-name="franc.tf" horiz-adv-x="1339" 
d="M57 346h193l2 1190h917l5 -131h-789v-549h625l-2 -123h-623v-387h203v-100h-203v-246h-135v246h-193v100z" />
    <glyph glyph-name="lira.tf" horiz-adv-x="1339" 
d="M770 1432q-204 0 -301 -87q-98 -87 -98 -231q0 -88 26 -190h619v-90h-596q27 -119 31 -142h565v-88h-551q8 -78 8 -125q0 -252 -164 -366l4 -7q184 35 425 35t493 -28q0 -1 -3 -61t-5 -64q-303 30 -539 30t-537 -28l-6 119q100 41 154 139q53 98 53 225q0 49 -8 131h-141
l-4 88h133q-10 51 -35 142h-98l-5 90h78q-29 111 -28 202q0 193 124 311t396 117q215 0 387 -84l-21 -118q-152 80 -356 80z" />
    <glyph glyph-name="peseta.tf" horiz-adv-x="1323" 
d="M332 1419v-301h665q-8 162 -90 232t-252 69h-323zM655 733q168 0 251 68t91 235h-665v-303h323zM1260 1036h-136q-10 -215 -122 -314t-347 -99h-323v-623h-127v1036h-144v82h144v418h450q238 0 350 -98t119 -320h136v-82z" />
    <glyph glyph-name="Euro.tf" horiz-adv-x="1339" 
d="M894 98q216 0 402 113l15 -109q-172 -119 -426 -118q-293 0 -440 152q-146 153 -175 476h-190l2 86h184q-2 31 -2 95v51h-182l-2 88h190q29 303 188 461t439 157q229 0 377 -80l-31 -110q-160 68 -325 67q-459 0 -517 -495h697l-23 -88h-682v-60q0 -59 2 -86h621l-23 -86
h-592q27 -270 152 -392t341 -122z" />
    <glyph glyph-name="numbersign.tosf" horiz-adv-x="1216" 
d="M481 834l-53 -320h307l51 320h-305zM102 514h226l51 320h-275v98h289l58 397h100l-57 -397h307l55 397h98l-57 -397h217v-98h-231l-49 -320h280v-98h-293l-59 -416h-98l59 416h-305l-62 -416h-98l57 416h-213v98z" />
    <glyph glyph-name="dollar.tosf" horiz-adv-x="1216" 
d="M1036 324q0 -138 -96 -237t-291 -112l-14 -294h-111l15 294q-229 14 -361 121l23 117q158 -125 391 -125q162 0 241 68t79 164t-75 150t-181 84t-215 64t-183 104t-74 198t104 212t298 93l18 280h111l-19 -280q152 -12 291 -74l-16 -115q-173 74 -329 74t-242 -54
t-85 -140q0 -86 75 -136t180 -76q104 -26 210 -60t182 -108q74 -74 74 -212z" />
    <glyph glyph-name="zero.tosf" horiz-adv-x="1216" 
d="M997 636q0 302 -91 421t-297 119t-298 -119t-92 -421t92 -421t298 -119t297 119t91 421zM1122 637q0 -348 -122 -503q-122 -154 -392 -154t-392 154t-122 503q0 348 122 502q122 153 393 153t392 -154t121 -501z" />
    <glyph glyph-name="one.tosf" horiz-adv-x="1216" 
d="M223 0v94h398v860l4 164l-4 4l-142 -88l-311 -186l-14 115l520 317h74v-1186h354v-94h-879z" />
    <glyph glyph-name="two.tosf" horiz-adv-x="1216" 
d="M332 115h743l-6 -115h-915v90q63 52 190 152q381 302 485 436q103 135 103 247q0 113 -86 181t-280 68t-369 -138l-39 105q197 151 428 151t352 -95t121 -254t-129 -325q-94 -121 -355 -318q-86 -65 -243 -179v-6z" />
    <glyph glyph-name="three.tosf" horiz-adv-x="1216" 
d="M1071 319q0 -252 -207 -397t-577 -153l-13 110q338 6 509 127t171 309q0 133 -91 204t-265 71q-43 0 -145 -10l-7 92q256 29 355 96q98 68 98 186q0 223 -326 224q-223 0 -393 -129l-35 102q74 67 191 105t244 38q216 0 324 -88t108 -235q0 -231 -236 -309v-5
q295 -55 295 -338z" />
    <glyph glyph-name="four.tosf" horiz-adv-x="1216" 
d="M862 260l4 741l6 166l-4 2l-555 -776l-98 -127l2 -6h645zM973 150v-365l-113 -10v375h-782l-10 86l772 1054l133 -10v-1020h201l-7 -110h-194z" />
    <glyph glyph-name="five.tosf" horiz-adv-x="1216" 
d="M1075 354q0 -262 -203 -420t-587 -165l-11 114q330 8 505 132t175 325q0 287 -368 287q-203 0 -361 -90l-53 51l61 686h777l8 -127h-690l-39 -475q154 72 329 71q225 1 341 -101t116 -288z" />
    <glyph glyph-name="six.tosf" horiz-adv-x="1216" 
d="M979 508q0 164 -84 242t-262 77q-100 0 -208 -46t-171 -122q4 -303 94 -430t275 -127q356 0 356 406zM1102 506q0 -524 -479 -524q-244 0 -370 160t-126 548t216 602t572 226l19 -113q-314 -10 -492 -173t-196 -452l6 -4q168 158 400 158t341 -104t109 -324z" />
    <glyph glyph-name="seven.tosf" horiz-adv-x="1216" 
d="M1098 1274v-109l-654 -1376h-139l653 1356h-833l8 129h965z" />
    <glyph glyph-name="eight.tosf" horiz-adv-x="1216" 
d="M293 965q0 -59 25 -103q41 -67 196 -114q40 -12 104 -28t78 -20q130 46 188 108t58 164q0 215 -328 216q-172 0 -246 -56t-75 -167zM985 340q0 92 -57 143t-121 72q-63 21 -94 31t-96 25t-93 24q-285 -96 -284 -289q0 -131 87 -193t289 -63q369 0 369 250zM119 344
q0 115 75 201t201 133v6q-221 82 -221 287q0 321 439 321t440 -321q0 -211 -228 -303v-4q133 -41 208 -114t75 -204q0 -364 -494 -364t-495 362z" />
    <glyph glyph-name="nine.tosf" horiz-adv-x="1216" 
d="M260 848q0 -328 344 -328q258 0 354 182q-4 244 -90 357t-263 113t-261 -85q-84 -84 -84 -239zM1085 666q0 -434 -212 -658t-566 -235l-10 112q289 13 465 187t199 489l-5 2q-131 -158 -378 -157q-213 0 -329 112t-116 324q0 213 117 332t342 118q493 1 493 -626z" />
    <glyph glyph-name="cent.tosf" horiz-adv-x="1216" 
d="M745 1102q-238 0 -344 -118t-106 -382t113 -387t320 -123t341 90l12 -110q-129 -90 -331 -101l-15 -293h-106l14 297q-479 37 -479 630t514 616l16 284h109l-19 -284q148 -13 285 -70l-10 -121q-150 72 -314 72z" />
    <glyph glyph-name="sterling.tosf" horiz-adv-x="1216" 
d="M178 963q0 170 115 276q115 107 347 107t390 -78l-20 -107q-143 72 -336 72t-284 -76t-91 -203q0 -84 43 -235h530v-98h-505q25 -104 24 -207q0 -217 -145 -314l2 -4q188 29 408 29t448 -25l-8 -110q-276 26 -506 26t-498 -24l-4 104q92 35 139 119t47 193t-24 213h-119
l-4 98h94q-43 150 -43 244z" />
    <glyph glyph-name="currency.tosf" horiz-adv-x="1216" 
d="M365 676q-1 -98 69 -168t172 -70t172 69t70 169t-70 169t-171 69t-172 -70q-70 -70 -70 -168zM270 677q0 110 66 202l-125 129l65 73l130 -133q86 68 198 68t205 -70l133 135l66 -73l-131 -134q63 -94 63 -197t-59 -194l127 -129l-68 -73l-127 131q-90 -74 -206 -74
t-208 70l-125 -127l-65 71l123 127q-62 88 -62 198z" />
    <glyph glyph-name="yen.tosf" horiz-adv-x="1216" 
d="M283 582h227l4 6l-86 135l-354 606h141l315 -573l76 -146h6l74 146l313 573h138l-428 -747h221v-78h-256v-121h256v-78h-256v-305h-127v305h-264v78h264v121h-264v78z" />
    <glyph glyph-name="franc.tosf" horiz-adv-x="1216" 
d="M76 307h184l-2 1022h862l2 -117h-741v-469h582v-112h-582v-324h192v-90h-192v-217h-121v217h-184v90z" />
    <glyph glyph-name="lira.tosf" horiz-adv-x="1216" 
d="M186 963q0 170 116 276q116 107 346 107t390 -78l-20 -107q-143 72 -336 72t-283 -76t-90 -203q0 -70 21 -155h588v-78h-568q18 -72 29 -123h539v-78h-525q6 -53 6 -106q0 -217 -143 -314l2 -4q172 29 400 29t456 -25l-8 -110q-281 26 -508 26t-498 -24l-2 104
q90 35 138 119q47 84 47 191q0 45 -9 114h-127l-2 78h117q-8 49 -33 123h-84l-4 78h68q-23 80 -23 164z" />
    <glyph glyph-name="peseta.tosf" horiz-adv-x="1216" 
d="M614 639q154 0 228 56t82 196h-615v-252h305zM309 1221v-258h615q-6 137 -81 197t-231 61h-303zM1184 891h-140q-10 -184 -112 -269t-318 -85h-305v-537h-119v891h-135v72h135v366h424q216 0 320 -87t113 -279h137v-72z" />
    <glyph glyph-name="Euro.tosf" horiz-adv-x="1216" 
d="M766 1233q-200 0 -310 -93t-139 -292h684l-30 -86h-662q-2 -27 -2 -85t2 -85h609l-33 -80h-568q29 -222 144 -322t315 -100t342 103l12 -113q-160 -109 -397 -109q-489 0 -553 541h-104v80h98q-2 29 -2 86t2 84h-98v86h106q66 504 574 504q219 0 377 -82l-39 -105
q-129 68 -328 68z" />
    <glyph glyph-name="zero.zero" horiz-adv-x="1290" 
d="M645 727q74 0 74 -89t-74 -89t-74 89t74 89zM1034 635q0 299 -90 417t-298 118t-300 -120q-92 -118 -92 -415t92 -415t300 -118t298 117t90 416zM1159 637q0 -348 -121 -503q-121 -154 -392 -154t-393 154t-122 502q0 349 121 503q121 153 393 153t393 -154t121 -501z
" />
    <glyph glyph-name="commaaccent" 
d="M414 1591q84 0 84 -78q0 -66 -131 -239l-35 14l59 164q-61 12 -61 70q0 69 84 69z" />
    <glyph glyph-name="commaccentturn" 
d="M407 1368q-85 0 -84 74t132 246l32 -17l-59 -166q63 -8 64 -67q0 -70 -85 -70z" />
    <glyph glyph-name="f_j" horiz-adv-x="1413" 
d="M1192 1546q0 -86 -96 -86t-97 86q1 86 97 86t96 -86zM399 0h-123v1110h-196v98h196v60q0 170 94 265t292 95q90 0 153 -18l-4 -90q-66 16 -127 16q-285 0 -285 -270v-58h758v-1243q0 -281 -256 -280q-63 0 -127 22l8 98q50 -18 108 -18t102 44t44 136v1143h-637v-1110z
" />
    <glyph glyph-name="orn001" horiz-adv-x="1474" 
d="M817 721l-39 53q197 76 281 168q51 -51 51 -143q-115 -53 -293 -78zM700 774l-41 -53q-180 25 -290 78q0 94 49 143q85 -92 282 -168zM740 465q-104 0 -197 -25q-68 76 -97 174q135 -49 293 -49t293 49q-28 -104 -96 -174q-92 25 -196 25zM738 53q50 1 104 59t107 143
q52 85 71 103q96 102 177 268t81 341q0 102 -119 144t-423 42t-421 -42t-116 -144q0 -176 81 -342t177 -269q18 -18 70 -102q53 -84 107 -142t104 -59zM735 -27q-69 0 -133 65t-127 166t-78 118q-109 121 -194 310q-86 189 -86 406t143 373t472 156t476 -151
q148 -151 148 -373t-86 -412t-195 -309q-17 -18 -79 -118t-128 -165q-66 -66 -133 -66z" />
    <glyph glyph-name="undercommaaccent" 
d="M412 -90q94 0 93 -73t-143 -243l-38 17l61 164q-68 12 -68 67q1 68 95 68z" />
    </font>
</defs>
</svg>
